<svg width="279" height="271" viewBox="0 0 279 271" fill="none" xmlns="http://www.w3.org/2000/svg">
<path opacity="0.15" d="M21.5953 70.8201C12.1483 74.3047 31.5301 109.641 35.1108 118.352C35.1583 118.467 35.2353 118.545 35.3485 118.598C41.824 121.6 59.4971 124.145 79.9316 110.849C79.9784 110.818 80.0215 110.778 80.0555 110.734C90.8391 96.719 81.3593 79.9241 80.0032 70.8201C78.6448 61.7014 62.345 61 57.5908 61C52.8367 61 31.1035 67.3129 21.5953 70.8201Z" fill="#55ACEE"/>
<path opacity="0.15" d="M215.531 5.19503C167.248 -13.3587 146.004 23.7487 146.004 23.7487C146.004 23.7487 139.824 42.8883 146.004 56.95C153.729 74.5272 199.114 67.6916 199.114 67.6916C199.114 67.6916 267.082 58.6831 259.95 31.5608C254.744 11.7601 263.813 23.7487 215.531 5.19503Z" fill="#55ACEE"/>
<path opacity="0.15" d="M202.005 203.577C196.369 205.701 168.262 223.76 178.053 236.142C180.619 239.388 183.57 239.6 186.507 242.513C191.78 247.744 194.679 254.265 196.369 258.796C198.483 264.459 205.105 268.195 212.573 270.123C217.901 271.498 225.018 271.067 226.662 270.123C228.306 269.179 236.601 263.829 242.161 258.796C252.834 249.134 264 243.221 264 229.063C264 217.736 248.988 227.811 242.161 221.983C234.747 215.655 240.482 203.306 231.594 199.33C226.065 196.856 222.08 198.423 216.095 199.33C210.414 200.19 207.641 201.453 202.005 203.577Z" fill="#55ACEE"/>
<path d="M274 167C271.662 167 266.286 167.7 263.48 170.5M265.985 163C267.822 165.167 271.596 170.2 271.996 173" stroke="#369CA3" stroke-linecap="round"/>
<path opacity="0.1" d="M274 171C271.662 171 266.286 171.7 263.48 174.5M265.985 167C267.822 169.167 271.596 174.2 271.996 177" stroke="#369CA3" stroke-width="10" stroke-linecap="round"/>
<path d="M35.0261 242C37.3638 242 42.7405 241.3 45.5457 238.5M43.041 246C41.2043 243.833 37.4306 238.8 37.0298 236" stroke="#369CA3" stroke-linecap="round"/>
<path opacity="0.1" d="M35.0261 238C37.3638 238 42.7405 237.3 45.5457 234.5M43.041 242C41.2043 239.833 37.4306 234.8 37.0298 232" stroke="#369CA3" stroke-width="10" stroke-linecap="round"/>
<ellipse cx="62.0689" cy="16" rx="8.0149" ry="8" stroke="#369CA3"/>
<ellipse opacity="0.1" cx="62.0689" cy="19" rx="8.0149" ry="8" stroke="#369CA3" stroke-width="10"/>
<ellipse cx="11.0112" cy="158" rx="6.01117" ry="6" stroke="#369CA3"/>
<ellipse opacity="0.1" cx="11.0112" cy="160" rx="6.01117" ry="6" stroke="#369CA3" stroke-width="10"/>
<ellipse cx="249.011" cy="94" rx="6.01117" ry="6" stroke="#369CA3"/>
<ellipse opacity="0.1" cx="249.011" cy="96" rx="6.01117" ry="6" stroke="#369CA3" stroke-width="10"/>
<ellipse cx="146.763" cy="248.5" rx="3.50652" ry="3.5" stroke="#369CA3"/>
<ellipse opacity="0.1" cx="146.763" cy="249.5" rx="3.50652" ry="3.5" stroke="#369CA3" stroke-width="10"/>
<path d="M92.1988 113.097C95.0583 113.43 97.7032 110.484 97.4046 107.299C97.1625 104.716 95.3615 103.522 93.1831 102.597C88.3184 100.53 83.7558 107.298 83.7558 113.097C83.7558 118.897 86.4548 122.371 91.5436 123.598C99.4425 125.501 107.816 116.301 107.816 107.299C107.816 98.2973 103.724 91 95.6424 91C87.5608 91 78.55 107.299 78.55 107.299C72.4783 118.968 69 132.538 69 147.018C69 190.639 100.564 226 139.5 226C178.436 226 210 190.639 210 147.018C210 132.538 206.522 118.968 200.45 107.299C200.45 107.299 191.439 91 183.358 91C175.276 91 171.184 98.2973 171.184 107.299C171.184 116.301 179.557 125.501 187.456 123.598C192.545 122.371 195.244 118.897 195.244 113.097C195.244 107.298 190.682 100.53 185.817 102.597C183.638 103.522 181.837 104.716 181.595 107.299C181.297 110.484 183.942 113.43 186.801 113.097" stroke="#369CA3" stroke-linecap="round"/>
<path d="M112.666 108.366C118.986 115.502 128.218 120 138.5 120C148.782 120 158.014 115.502 164.334 108.366M104.28 89.9128C104.095 88.4679 104 86.995 104 85.5C104 66.4462 119.446 51 138.5 51C157.554 51 173 66.4462 173 85.5C173 86.995 172.905 88.4679 172.72 89.9128" stroke="#369CA3" stroke-linecap="round"/>
<path d="M109.796 110.849C116.941 118.915 127.377 124 139 124C150.623 124 161.059 118.915 168.204 110.849M100.316 89.9884C100.108 88.355 100 86.6901 100 85C100 63.4609 117.461 46 139 46C160.539 46 178 63.4609 178 85C178 86.6901 177.893 88.355 177.684 89.9884" stroke="#369CA3" stroke-linecap="round"/>
<g opacity="0.1">
<path d="M89.1988 118.097C92.0583 118.43 94.7032 115.484 94.4046 112.299C94.1625 109.716 92.3615 108.522 90.1831 107.597C85.3184 105.53 80.7558 112.298 80.7558 118.097C80.7558 123.897 83.4548 127.371 88.5436 128.598C96.4425 130.501 104.816 121.301 104.816 112.299C104.816 103.297 100.724 96 92.6424 96C84.5608 96 75.55 112.299 75.55 112.299C69.4783 123.968 66 137.538 66 152.018C66 195.639 97.5639 231 136.5 231C175.436 231 207 195.639 207 152.018C207 137.538 203.522 123.968 197.45 112.299C197.45 112.299 188.439 96 180.358 96C172.276 96 168.184 103.297 168.184 112.299C168.184 121.301 176.557 130.501 184.456 128.598C189.545 127.371 192.244 123.897 192.244 118.097C192.244 112.298 187.682 105.53 182.817 107.597C180.638 108.522 178.837 109.716 178.595 112.299C178.297 115.484 180.942 118.43 183.801 118.097" stroke="#369CA3" stroke-width="10" stroke-linecap="round"/>
<path d="M109.666 113.366C115.986 120.502 125.218 125 135.5 125C145.782 125 155.014 120.502 161.334 113.366M101.28 94.9128C101.095 93.4679 101 91.995 101 90.5C101 71.4462 116.446 56 135.5 56C154.554 56 170 71.4462 170 90.5C170 91.995 169.905 93.4679 169.72 94.9128" stroke="#369CA3" stroke-width="10" stroke-linecap="round"/>
<path d="M106.796 115.849C113.941 123.915 124.377 129 136 129C147.623 129 158.059 123.915 165.204 115.849M97.316 94.9884C97.1075 93.355 97 91.6901 97 90C97 68.4609 114.461 51 136 51C157.539 51 175 68.4609 175 90C175 91.6901 174.893 93.355 174.684 94.9884" stroke="#369CA3" stroke-width="10" stroke-linecap="round"/>
</g>
<path opacity="0.1" d="M138.133 128.752C109.495 128.752 90.1954 115.094 71.5182 108.886C52.841 102.678 59.0667 169.105 74.6311 197.042C90.1954 224.978 110.118 216.287 132.53 215.666C154.943 215.045 180.468 237.394 195.41 206.975C210.352 176.555 225.294 118.819 214.087 102.678C202.881 86.5368 166.772 128.752 138.133 128.752Z" fill="#369CA3"/>
<path d="M82 167C85.5333 182.667 101.08 214 135 214" stroke="#369CA3" stroke-linecap="round"/>
<path d="M195 167C191.467 182.667 175.92 214 142 214" stroke="#369CA3" stroke-linecap="round"/>
<path d="M106 179.5C110 187.5 119 198 124.5 200.5" stroke="#369CA3" stroke-linecap="round"/>
<path d="M170.5 179.5C166.5 187.5 157.5 198 152 200.5" stroke="#369CA3" stroke-linecap="round"/>
</svg>
