<svg width="20" height="20" viewBox="0 0 20 20" fill="none" xmlns="http://www.w3.org/2000/svg">
<g id="clipboard">
<path id="Vector" d="M13.3333 3.33325H15C15.442 3.33325 15.8659 3.50885 16.1785 3.82141C16.4911 4.13397 16.6667 4.55789 16.6667 4.99992V16.6666C16.6667 17.1086 16.4911 17.5325 16.1785 17.8451C15.8659 18.1577 15.442 18.3333 15 18.3333H5C4.55797 18.3333 4.13405 18.1577 3.82149 17.8451C3.50893 17.5325 3.33333 17.1086 3.33333 16.6666V4.99992C3.33333 4.55789 3.50893 4.13397 3.82149 3.82141C4.13405 3.50885 4.55797 3.33325 5 3.33325H6.66667" stroke="#80869A" stroke-width="1.5" stroke-linecap="round" stroke-linejoin="round"/>
<path id="Vector_2" d="M12.5 1.66675H7.5C7.03976 1.66675 6.66666 2.03984 6.66666 2.50008V4.16675C6.66666 4.62698 7.03976 5.00008 7.5 5.00008H12.5C12.9602 5.00008 13.3333 4.62698 13.3333 4.16675V2.50008C13.3333 2.03984 12.9602 1.66675 12.5 1.66675Z" stroke="#80869A" stroke-width="1.5" stroke-linecap="round" stroke-linejoin="round"/>
</g>
</svg>
