<svg width="17" height="17" viewBox="0 0 17 17" fill="none" xmlns="http://www.w3.org/2000/svg">
<g id="copy">
<path id="Vector" d="M13.8333 6.5H7.83333C7.09695 6.5 6.5 7.09695 6.5 7.83333V13.8333C6.5 14.5697 7.09695 15.1667 7.83333 15.1667H13.8333C14.5697 15.1667 15.1667 14.5697 15.1667 13.8333V7.83333C15.1667 7.09695 14.5697 6.5 13.8333 6.5Z" stroke="#7D849A" stroke-width="1.5" stroke-linecap="round" stroke-linejoin="round"/>
<path id="Vector_2" d="M3.83325 10.5H3.16659C2.81296 10.5 2.47382 10.3596 2.22378 10.1095C1.97373 9.85947 1.83325 9.52033 1.83325 9.16671V3.16671C1.83325 2.81309 1.97373 2.47395 2.22378 2.2239C2.47382 1.97385 2.81296 1.83337 3.16659 1.83337H9.16659C9.52021 1.83337 9.85935 1.97385 10.1094 2.2239C10.3594 2.47395 10.4999 2.81309 10.4999 3.16671V3.83337" stroke="#7D849A" stroke-width="1.5" stroke-linecap="round" stroke-linejoin="round"/>
</g>
</svg>
