<svg width="60" height="60" viewBox="0 0 60 60" fill="none" xmlns="http://www.w3.org/2000/svg">
<path d="M44.4662 40.4842C46.2662 40.244 47.7258 38.9533 48.1845 37.196L48.5451 35.8149C50.1659 34.3176 50.86 32.0854 50.36 29.9187C50.1791 29.1347 49.4628 28.579 48.6599 28.6037L46.9029 28.6515C46.9055 28.5737 46.9067 28.496 46.9052 28.4181L47.8379 27.1977C48.9409 25.7548 49.0601 23.81 48.1419 22.2431L47.4203 21.0118C47.5077 18.807 46.42 16.7377 44.5344 15.5591C43.8521 15.1331 42.9554 15.2476 42.4023 15.8315L41.1907 17.1109C41.1789 17.0992 41.168 17.0866 41.1559 17.0751L40.9525 15.5527C40.7122 13.7526 39.4213 12.293 37.6642 11.8343L36.2832 11.4739C34.7859 9.85279 32.5537 9.15888 30.387 9.65882C29.6033 9.83987 29.0501 10.5549 29.072 11.3589L29.1164 12.9878C28.9982 12.9806 28.8796 12.9772 28.7606 12.9795L27.5403 12.0467C26.0975 10.9439 24.1527 10.8246 22.5858 11.7426L21.3544 12.4643C19.1506 12.377 17.0802 13.4645 15.9019 15.3499C15.4755 16.0323 15.5899 16.9288 16.1742 17.482L17.4507 18.691C17.3937 18.7438 17.3377 18.7979 17.2836 18.8542L15.7612 19.0575C13.9611 19.2977 12.5015 20.5885 12.0428 22.3458L11.6823 23.7268C10.0614 25.2241 9.36734 27.4565 9.8674 29.6227C10.0482 30.4067 10.7621 30.9607 11.5675 30.938L13.3267 30.89C13.3241 30.9679 13.3207 31.0456 13.3222 31.1238L12.3895 32.3441C11.2866 33.7868 11.1673 35.7316 12.0854 37.2985L12.807 38.5299C12.7196 40.7348 13.8073 42.8041 15.6928 43.9824C15.9691 44.1551 16.2804 44.2391 16.59 44.2391C17.045 44.2391 17.4958 44.0578 17.825 43.7101L19.0349 42.4324C19.0876 42.4896 19.1407 42.5466 19.1969 42.6008L19.4002 44.1233C19.6405 45.9232 20.9313 47.3828 22.6885 47.8416L24.0695 48.2021C25.2458 49.4754 26.8752 50.1767 28.5704 50.1766C29.0332 50.1766 29.501 50.1243 29.9657 50.0171C30.7495 49.8361 31.3026 49.1209 31.2806 48.317L31.2327 46.5582C31.3104 46.5608 31.3883 46.5639 31.4663 46.5624L32.6866 47.4951C33.4836 48.1043 34.4335 48.4133 35.3884 48.4133C36.1623 48.4133 36.9396 48.2102 37.6411 47.7991L38.8726 47.0775C41.0767 47.166 43.1466 46.0773 44.325 44.1919C44.7515 43.5096 44.637 42.6129 44.0529 42.0598L42.7766 40.8511C42.8333 40.798 42.8893 40.7439 42.9435 40.6877L44.4662 40.4842ZM47.1939 34.659C47.0544 34.7763 46.9548 34.9339 46.9088 35.1103L46.4805 36.7512C46.2033 37.8133 45.3211 38.5934 44.2331 38.7388L42.396 38.9842C42.1914 39.0114 42.0029 39.1098 41.8634 39.262L41.721 39.4173C41.6569 39.4873 41.5883 39.5521 41.5176 39.6143C41.0631 39.1124 40.657 38.5678 40.3071 37.9869L40.2342 37.8657C39.0756 35.9417 37.4427 34.3181 35.5124 33.1704C34.6813 32.6762 33.9228 32.0698 33.2579 31.3677L32.3494 30.4083L33.4183 30.4374C34.5475 30.4671 35.6746 30.3424 36.769 30.0643C38.6652 29.5824 40.6711 29.5768 42.5694 30.0479L42.7066 30.082C43.7801 30.3484 44.8842 30.469 45.9904 30.4381L48.6557 30.3657C49.0046 31.9632 48.4474 33.604 47.1939 34.659V34.659ZM43.6454 17.0807C45.0218 17.9634 45.788 19.5177 45.6477 21.1499C45.6321 21.3314 45.6732 21.5134 45.7652 21.6706L46.6226 23.1337C47.1776 24.0807 47.1054 25.2562 46.4388 26.1283L45.3133 27.6008C45.188 27.7647 45.1243 27.9674 45.1331 28.1736L45.1422 28.3846C45.1463 28.4795 45.1439 28.5739 45.1382 28.6679C44.4618 28.6344 43.7893 28.5363 43.131 28.3729L42.9937 28.3387C40.8142 27.7975 38.5114 27.8041 36.3347 28.3575C35.3978 28.5955 34.4324 28.7023 33.4659 28.677L32.1451 28.641L32.9214 27.9058C33.7414 27.1291 34.4499 26.2432 35.027 25.2727C36.0267 23.5911 37.4411 22.1687 39.117 21.1595L39.2379 21.0867C40.1853 20.5162 41.0513 19.8198 41.8119 19.0167L43.6454 17.0807ZM30.5165 17.4499L30.5507 17.3125C30.8171 16.2391 30.9369 15.1342 30.9069 14.0287L30.8343 11.3635C32.4316 11.0147 34.0727 11.5716 35.1276 12.8251C35.2449 12.9646 35.4026 13.0641 35.5789 13.1101L37.2198 13.5385C38.2817 13.8157 39.0619 14.6979 39.2072 15.786L39.4526 17.623C39.4799 17.8276 39.5783 18.0162 39.7305 18.1556L39.8858 18.298C39.9103 18.3204 39.933 18.3445 39.9566 18.3677C39.4548 18.8221 38.9104 19.2281 38.3295 19.5779L38.2086 19.6507C36.2846 20.8093 34.661 22.442 33.5132 24.3725C33.0191 25.2034 32.4126 25.9619 31.7104 26.6269L30.8837 27.4097L30.9058 26.6008C30.9366 25.4717 30.811 24.3443 30.5327 23.2501C30.0508 21.3541 30.0452 19.3483 30.5165 17.4499V17.4499ZM13.0339 24.8828C13.1732 24.7655 13.2728 24.6077 13.3188 24.4315L13.7472 22.7906C14.0244 21.7285 14.9066 20.9484 15.9946 20.8031L17.8317 20.5577C18.0363 20.5305 18.2249 20.4321 18.3644 20.2798L18.5067 20.1246C18.5708 20.0546 18.6392 19.9897 18.7098 19.9272C19.1645 20.4292 19.5708 20.974 19.9209 21.5553L19.9937 21.676C20.3949 22.3422 20.8605 22.9825 21.3777 23.5788C21.5519 23.7797 21.7969 23.8826 22.0435 23.8826C22.2479 23.8826 22.4534 23.8116 22.62 23.6672C22.9873 23.3487 23.0269 22.7925 22.7084 22.4251C22.2573 21.9049 21.8516 21.3472 21.5024 20.7674L21.4298 20.6467C20.8593 19.6993 20.1626 18.8333 19.3597 18.0728L17.4239 16.2394C18.3065 14.863 19.8605 14.0968 21.493 14.2372C21.6748 14.2529 21.8565 14.2116 22.0138 14.1195L23.4768 13.2621C24.424 12.7073 25.5994 12.7795 26.4714 13.4459L27.9439 14.5715C28.1079 14.6967 28.3109 14.7617 28.517 14.7516L28.7277 14.7424C28.8674 14.7361 29.0057 14.742 29.1425 14.7575C29.1154 15.4755 29.0149 16.1895 28.8416 16.8876L28.8074 17.025C28.2663 19.2046 28.2727 21.5074 28.8262 23.684C29.0645 24.6208 29.1719 25.5861 29.1457 26.5529L29.1098 27.8721L28.2489 26.9631C27.4721 26.143 26.5862 25.4345 25.6161 24.8578C25.5329 24.8083 25.4511 24.7572 25.3693 24.7057C24.9573 24.4467 24.4138 24.5712 24.1551 24.9828C23.8963 25.3946 24.0204 25.9382 24.4322 26.197C24.526 26.2559 24.6199 26.3145 24.7156 26.3715C25.5466 26.8653 26.305 27.4718 26.9699 28.1741L27.8785 29.1333L26.8097 29.1042C25.6803 29.0725 24.5534 29.199 23.459 29.4773C21.5631 29.9592 19.5572 29.9648 17.6586 29.4938L17.5214 29.4596C16.448 29.1931 15.3432 29.074 14.2375 29.1034L11.5723 29.1758C11.2232 27.5787 11.7803 25.9379 13.0339 24.8828V24.8828ZM18.4157 40.5253L16.5824 42.4612C15.206 41.5785 14.4398 40.0242 14.5801 38.392C14.5957 38.2104 14.5546 38.0284 14.4625 37.8712L13.6052 36.408C13.0502 35.4611 13.1224 34.2856 13.789 33.4136L14.9145 31.9411C15.0399 31.7772 15.1036 31.5743 15.0946 31.368L15.0854 31.1574C15.0813 31.0625 15.0838 30.9682 15.0894 30.8742C15.7659 30.9078 16.4383 31.0057 17.0967 31.169L17.2339 31.2032C18.3113 31.4705 19.4185 31.6043 20.5259 31.6043C21.6589 31.6043 22.7922 31.4643 23.8929 31.1844C24.8299 30.9462 25.7952 30.8394 26.7617 30.8649L28.0825 30.9008L27.3062 31.636C26.4864 32.4123 25.778 33.2982 25.2007 34.2692C24.2008 35.9507 22.7864 37.3732 21.1106 38.3823L20.9897 38.4551C20.0421 39.0259 19.176 39.7223 18.4157 40.5253ZM29.8368 42.2266L29.8029 42.3634C29.5363 43.4368 29.4165 44.5416 29.4465 45.6473L29.5191 48.3125C27.9218 48.6617 26.2807 48.1046 25.2258 46.851C25.1084 46.7115 24.9508 46.612 24.7745 46.5659L23.1338 46.1376C22.0716 45.8603 21.2914 44.9782 21.1462 43.8901L20.9009 42.0531C20.8736 41.8486 20.7752 41.6599 20.623 41.5205L20.4677 41.3781C20.3977 41.314 20.3322 41.246 20.2702 41.1751C20.7722 40.7203 21.317 40.3141 21.8983 39.964L22.0193 39.8912C23.9432 38.7327 25.5668 37.0998 26.7147 35.1694C27.2089 34.3381 27.8154 33.5796 28.5174 32.9149L29.4767 32.0064L29.4476 33.0752C29.4168 34.2039 29.5423 35.3313 29.8206 36.4259C30.3026 38.3219 30.3082 40.3277 29.8368 42.2266V42.2266ZM38.7348 45.3047C38.5529 45.2884 38.3713 45.3302 38.2141 45.4223L36.7511 46.2797C35.804 46.8347 34.6286 46.7625 33.7565 46.0959L32.284 44.9704C32.12 44.8453 31.917 44.7809 31.7109 44.7903L31.5003 44.7995C31.4054 44.8033 31.3111 44.8009 31.2172 44.7951C31.2508 44.1186 31.3486 43.4463 31.5121 42.7877L31.5461 42.6509C32.0872 40.4713 32.0808 38.1685 31.5273 35.9919C31.2891 35.0548 31.1816 34.0895 31.2079 33.1231L31.2439 31.8023L31.9791 32.5787C32.7556 33.3987 33.6416 34.1071 34.6122 34.6841C36.2937 35.684 37.7161 37.0983 38.7252 38.7741L38.7981 38.8952C39.3689 39.8427 40.0652 40.7087 40.8682 41.4691L42.8041 43.3025C41.9214 44.6789 40.3663 45.4445 38.7348 45.3047V45.3047Z" fill="white"/>
<path d="M51.2133 8.78674C45.547 3.12069 38.0134 0 30 0C21.9866 0 14.453 3.12069 8.78674 8.78674C3.12057 14.453 0 21.9868 0 30C0 37.6711 2.89526 44.9718 8.15237 50.557C8.4857 50.9112 9.04294 50.9279 9.39717 50.5946C9.7514 50.2613 9.76819 49.704 9.43486 49.3498C4.4863 44.0927 1.76118 37.2207 1.76118 30C1.76118 22.4571 4.69858 15.3657 10.0321 10.0322C15.3658 4.69858 22.4572 1.76118 30 1.76118C37.5428 1.76118 44.6343 4.69858 49.9679 10.0321C55.3015 15.3657 58.2388 22.457 58.2388 29.9999C58.2388 37.5428 55.3014 44.6342 49.9679 49.9677C44.6343 55.3013 37.5429 58.2386 30 58.2386C23.4836 58.2386 17.1256 55.9656 12.0969 51.8382C11.7209 51.5296 11.1661 51.5844 10.8575 51.9601C10.549 52.3361 10.6036 52.8909 10.9795 53.1995C16.3222 57.5848 23.0772 59.9998 30 59.9998C38.0134 59.9998 45.547 56.8793 51.2133 51.213C56.8795 45.5467 60 38.0131 60 29.9998C60 21.9868 56.8795 14.453 51.2133 8.78674V8.78674Z" fill="white"/>
<path d="M51.9236 21.5878C52.3707 21.3965 52.5781 20.8789 52.3867 20.4317C48.5464 11.4577 39.759 5.65918 30 5.65918C16.5786 5.65918 5.65938 16.5784 5.65938 29.9998C5.65938 43.4214 16.5786 54.3406 30 54.3406C43.4215 54.3406 54.3406 43.4214 54.3406 29.9998C54.3406 28.0282 54.1024 26.0621 53.6325 24.156C53.5161 23.6839 53.0386 23.3954 52.5668 23.5118C52.0946 23.6281 51.8061 24.1054 51.9226 24.5775C52.3585 26.3458 52.5795 28.1702 52.5795 29.9999C52.5795 42.4503 42.4504 52.5795 30 52.5795C17.5497 52.5795 7.42055 42.4503 7.42055 29.9999C7.42055 17.5496 17.5497 7.42047 30 7.42047C39.0532 7.42047 47.2049 12.7997 50.7676 21.1249C50.959 21.5719 51.4764 21.7789 51.9236 21.5878V21.5878Z" fill="white"/>
</svg>
