<?xml version="1.0" encoding="UTF-8" standalone="no"?>
<svg
   width="14"
   height="14"
   viewBox="0 0 14 14"
   fill="none"
   version="1.1"
   id="svg178"
   sodipodi:docname="edit-3.svg"
   inkscape:version="1.2.1 (9c6d41e4, 2022-07-14)"
   xmlns:inkscape="http://www.inkscape.org/namespaces/inkscape"
   xmlns:sodipodi="http://sodipodi.sourceforge.net/DTD/sodipodi-0.dtd"
   xmlns="http://www.w3.org/2000/svg"
   xmlns:svg="http://www.w3.org/2000/svg">
  <defs
     id="defs182" />
  <sodipodi:namedview
     id="namedview180"
     pagecolor="#ffffff"
     bordercolor="#000000"
     borderopacity="0.25"
     inkscape:showpageshadow="2"
     inkscape:pageopacity="0.0"
     inkscape:pagecheckerboard="0"
     inkscape:deskcolor="#d1d1d1"
     showgrid="false"
     inkscape:zoom="16.857143"
     inkscape:cx="7.2966102"
     inkscape:cy="1.1864407"
     inkscape:window-width="1432"
     inkscape:window-height="456"
     inkscape:window-x="306"
     inkscape:window-y="1173"
     inkscape:window-maximized="0"
     inkscape:current-layer="svg178" />
  <g
     id="Vector" />
  <g
     id="Vector_2">
    <path
       id="path196"
       style="color:#000000;fill:#1a1a1a;stroke-linecap:round;stroke-linejoin:round;-inkscape-stroke:none"
       d="m 10.5,0.9296875 c -0.5268131,0 -1.0337413,0.2095065 -1.40625,0.5820312 L 1.8027344,8.8027344 A 0.750075,0.750075 0 0 0 1.6054687,9.1523438 L 1.0214844,11.484375 a 0.750075,0.750075 0 0 0 0.9101562,0.910156 L 4.265625,11.810547 A 0.750075,0.750075 0 0 0 4.6132812,11.613281 L 11.90625,4.3222656 c 0.184435,-0.1844513 0.329786,-0.4029987 0.429688,-0.6445312 0.09992,-0.2411655 0.152343,-0.5007575 0.152343,-0.7617188 0,-0.2609652 -0.05243,-0.5186001 -0.152343,-0.7597656 C 12.236041,1.9147448 12.090722,1.6961907 11.90625,1.5117187 11.721723,1.3271754 11.501004,1.1799623 11.259766,1.0800781 11.018666,0.98020068 10.760992,0.9296875 10.5,0.9296875 Z m 0,1.5 c 0.06401,0 0.126447,0.012627 0.185547,0.037109 a 0.750075,0.750075 0 0 0 0.002,0 c 0.05916,0.024496 0.110978,0.060192 0.15625,0.1054687 0.04533,0.045328 0.08117,0.099449 0.105469,0.1582032 a 0.750075,0.750075 0 0 0 0.002,0 c 0.02448,0.059094 0.03711,0.1214924 0.03711,0.1855468 0,0.064038 -0.01263,0.1284058 -0.03711,0.1875 a 0.750075,0.750075 0 0 0 -0.002,0 c -0.0243,0.058747 -0.06011,0.1128347 -0.105469,0.1582032 L 3.6992188,10.40625 2.78125,10.636719 3.0097656,9.7167969 10.15625,2.5722656 C 10.247861,2.4806508 10.370414,2.4296875 10.5,2.4296875 Z M 9.625,2.04164 C 9.85706,1.80957 10.1718,1.6792 10.5,1.6792 c 0.1625,0 0.3234,0.03201 0.4735,0.09419 0.1502,0.06219 0.2866,0.15334 0.4015,0.26825 0.1149,0.1149 0.2061,0.25132 0.2682,0.40145 0.0622,0.15013 0.0942,0.31104 0.0942,0.47355 0,0.1625 -0.032,0.32341 -0.0942,0.47354 -0.0621,0.15014 -0.1533,0.28655 -0.2682,0.40146 L 4.08333,11.0833 1.75,11.6666 2.33333,9.3333 Z M 7,10.916016 a 0.75,0.75 0 0 0 -0.75,0.75 0.75,0.75 0 0 0 0.75,0.75 h 5.25 a 0.75,0.75 0 0 0 0.75,-0.75 0.75,0.75 0 0 0 -0.75,-0.75 z M 7,11.6666 h 5.25" />
  </g>
</svg>
