<?xml version="1.0" encoding="UTF-8" standalone="no"?>
<svg
   width="16"
   height="16"
   viewBox="0 0 16 16"
   fill="none"
   version="1.1"
   id="svg17"
   sodipodi:docname="eye-off.svg"
   inkscape:version="1.2.1 (9c6d41e4, 2022-07-14)"
   xmlns:inkscape="http://www.inkscape.org/namespaces/inkscape"
   xmlns:sodipodi="http://sodipodi.sourceforge.net/DTD/sodipodi-0.dtd"
   xmlns="http://www.w3.org/2000/svg"
   xmlns:svg="http://www.w3.org/2000/svg">
  <sodipodi:namedview
     id="namedview19"
     pagecolor="#ffffff"
     bordercolor="#000000"
     borderopacity="0.25"
     inkscape:showpageshadow="2"
     inkscape:pageopacity="0.0"
     inkscape:pagecheckerboard="0"
     inkscape:deskcolor="#d1d1d1"
     showgrid="false"
     inkscape:zoom="14.75"
     inkscape:cx="8.3050847"
     inkscape:cy="8.1694915"
     inkscape:window-width="1353"
     inkscape:window-height="697"
     inkscape:window-x="171"
     inkscape:window-y="219"
     inkscape:window-maximized="0"
     inkscape:current-layer="svg17" />
  <path
     id="Vector"
     style="color:#000000;fill:#80869a;stroke-linecap:round;stroke-linejoin:round;-inkscape-stroke:none"
     d="m 0.66601562,-0.08398437 a 0.75,0.75 0 0 0 -0.52929687,0.22070312 0.75,0.75 0 0 0 0,1.06054685 L 2.9257812,3.9863281 C 1.742236,5.0193724 0.75095473,6.2559756 0.00585938,7.6445312 a 0.750075,0.750075 0 0 0 -0.00976563,0.6914063 c 0,0 2.76581995,5.7480465 8.00390625,5.7480465 a 0.750075,0.750075 0 0 0 0.011719,0 c 1.3721565,-0.02241 2.7058802,-0.424377 3.8593752,-1.152343 l 2.93164,2.93164 a 0.75,0.75 0 0 0 1.060547,0 0.75,0.75 0 0 0 0,-1.060547 L 12.490234,11.429688 9.9238281,8.8652344 7.1347656,6.0761719 4.5703125,3.5097656 1.1972656,0.13671875 A 0.75,0.75 0 0 0 0.66601562,-0.08398437 Z M 8,1.9160156 C 7.4712407,1.9149322 6.9445495,1.975192 6.4296875,2.0957031 A 0.750075,0.750075 0 0 0 6.0703125,3.3574219 L 13.363281,10.65625 a 0.750075,0.750075 0 0 0 1.103516,-0.04687 C 15.053121,9.9126122 15.56484,9.1566049 15.994141,8.3535156 a 0.750075,0.750075 0 0 0 0.0098,-0.6894531 c 0,0 -2.765201,-5.7465278 -8.0019529,-5.7480469 z m 0.3457031,1.5957032 c 3.6106399,0.268464 5.7786679,3.9532806 6.0800779,4.5 -0.192465,0.3292328 -0.41675,0.6367965 -0.640625,0.9453124 z m -4.3222656,1.5722656 1.59375,1.59375 C 5.5645375,6.7670807 5.4798791,6.8345739 5.4375,6.9296875 5.2872122,7.267 5.2076892,7.6327209 5.2011719,8.0019531 c -0.00652,0.3692378 0.060908,0.7357094 0.1992187,1.078125 0.1383085,0.3424231 0.3443434,0.6529372 0.6054688,0.9140625 0.2611431,0.2611574 0.5716756,0.4671704 0.9140625,0.6054684 0.3424233,0.138323 0.7089607,0.20568 1.078125,0.199219 0.3690834,-0.0066 0.7349158,-0.08602 1.0722656,-0.236328 0.095104,-0.04238 0.1626117,-0.127041 0.2519531,-0.179688 l 1.4003904,1.400391 C 9.8794457,12.245224 8.9662363,12.564863 7.9960938,12.582031 4.175132,12.57861 1.8898091,8.5589154 1.5761719,7.9902344 2.223418,6.8878167 3.0536482,5.9154111 4.0234375,5.0839844 Z M 6.75,7.8105469 8.1894531,9.25 C 8.1163358,9.264583 8.0476144,9.2974883 7.9726562,9.2988281 7.8047416,9.301767 7.6380774,9.2718616 7.4824219,9.2089844 7.3267496,9.1461041 7.1850823,9.052276 7.0664062,8.9335938 6.9476924,8.8148798 6.8538869,8.6732342 6.7910156,8.5175781 6.7281471,8.3619349 6.6982093,8.1951849 6.7011719,8.0273438 6.7024938,7.9524521 6.7354251,7.8836345 6.75,7.8105469 Z" />
  <defs
     id="defs15">
    <clipPath
       clipPathUnits="userSpaceOnUse"
       id="clipPath131">
      <g
         id="g135">
        <rect
           width="16"
           height="16"
           fill="#ffffff"
           id="rect133"
           x="0"
           y="0" />
      </g>
    </clipPath>
    <clipPath
       clipPathUnits="userSpaceOnUse"
       id="clipPath137">
      <g
         id="g141">
        <rect
           width="16"
           height="16"
           fill="#ffffff"
           id="rect139"
           x="0"
           y="0" />
      </g>
    </clipPath>
  </defs>
</svg>
