<svg width="11" height="16" viewBox="0 0 11 16" fill="none" xmlns="http://www.w3.org/2000/svg">
<g id="Frame">
<g id="Group">
<path id="Vector" d="M9.49947 0.00332907L7.42463 0C5.09362 0 3.58721 1.54552 3.58721 3.93762V5.75313H1.50105C1.32078 5.75313 1.1748 5.89927 1.1748 6.07954V8.71001C1.1748 8.89028 1.32095 9.03626 1.50105 9.03626H3.58721V15.6738C3.58721 15.854 3.73319 16 3.91346 16H6.63531C6.81558 16 6.96156 15.8539 6.96156 15.6738V9.03626H9.40077C9.58104 9.03626 9.72701 8.89028 9.72701 8.71001L9.72801 6.07954C9.72801 5.99299 9.69356 5.91009 9.63247 5.84884C9.57138 5.78758 9.48815 5.75313 9.4016 5.75313H6.96156V4.2141C6.96156 3.47438 7.13783 3.09886 8.10143 3.09886L9.49914 3.09836C9.67924 3.09836 9.82522 2.95222 9.82522 2.77211V0.329578C9.82522 0.149642 9.67941 0.00366197 9.49947 0.00332907Z" fill="#3B5999"/>
</g>
</g>
</svg>
