<svg width="274" height="271" viewBox="0 0 274 271" fill="none" xmlns="http://www.w3.org/2000/svg">
<circle opacity="0.1" cx="140" cy="174" r="54" fill="#DD4B39"/>
<path opacity="0.15" d="M21.5953 70.8201C12.1483 74.3047 31.5301 109.641 35.1108 118.352C35.1583 118.467 35.2353 118.545 35.3485 118.598C41.824 121.6 59.4971 124.145 79.9316 110.849C79.9784 110.818 80.0215 110.778 80.0555 110.734C90.8391 96.719 81.3593 79.9241 80.0032 70.8201C78.6448 61.7014 62.345 61 57.5908 61C52.8367 61 31.1035 67.3129 21.5953 70.8201Z" fill="#80869A"/>
<path opacity="0.15" d="M243.326 3.53086C210.374 -9.07934 195.875 16.1411 195.875 16.1411C195.875 16.1411 191.657 29.1495 195.875 38.7067C201.147 50.6532 232.122 46.0073 232.122 46.0073C232.122 46.0073 278.509 39.8846 273.642 21.4506C270.089 7.99289 276.278 16.1411 243.326 3.53086Z" fill="#80869A"/>
<path opacity="0.15" d="M217.504 220.202C213.277 221.802 192.196 235.408 199.54 244.737C201.465 247.183 203.678 247.343 205.88 249.537C209.835 253.479 212.009 258.391 213.277 261.805C214.862 266.072 219.828 268.886 225.429 270.339C229.426 271.376 234.764 271.05 235.997 270.339C237.23 269.628 243.451 265.597 247.621 261.805C255.625 254.526 264 250.071 264 239.403C264 230.869 252.741 238.461 247.621 234.07C242.061 229.302 246.362 219.998 239.695 217.002C235.549 215.138 232.56 216.319 228.071 217.002C223.811 217.65 221.731 218.602 217.504 220.202Z" fill="#80869A"/>
<path d="M137 52C138.111 52 140.667 52.35 142 53.75M140.81 50C139.937 51.0833 138.143 53.6 137.952 55" stroke="#DD4B39" stroke-linecap="round"/>
<path opacity="0.1" d="M137 54C138.111 54 140.667 54.35 142 55.75M140.81 52C139.937 53.0833 138.143 55.6 137.952 57" stroke="#DD4B39" stroke-width="10" stroke-linecap="round"/>
<path d="M254 97C251.662 97 246.286 97.7 243.48 100.5M245.985 93C247.822 95.1667 251.596 100.2 251.996 103" stroke="#DD4B39" stroke-linecap="round"/>
<path opacity="0.1" d="M254 101C251.662 101 246.286 101.7 243.48 104.5M245.985 97C247.822 99.1667 251.596 104.2 251.996 107" stroke="#DD4B39" stroke-width="10" stroke-linecap="round"/>
<path d="M55.0261 262C57.3638 262 62.7405 261.3 65.5457 258.5M63.041 266C61.2043 263.833 57.4306 258.8 57.0298 256" stroke="#DD4B39" stroke-linecap="round"/>
<path opacity="0.1" d="M55.0261 258C57.3638 258 62.7405 257.3 65.5457 254.5M63.041 262C61.2043 259.833 57.4306 254.8 57.0298 252" stroke="#DD4B39" stroke-width="10" stroke-linecap="round"/>
<ellipse cx="42.0689" cy="26" rx="8.0149" ry="8" stroke="#DD4B39"/>
<ellipse opacity="0.1" cx="42.0689" cy="29" rx="8.0149" ry="8" stroke="#DD4B39" stroke-width="10"/>
<ellipse cx="11.0112" cy="158" rx="6.01117" ry="6" stroke="#DD4B39"/>
<ellipse opacity="0.1" cx="11.0112" cy="160" rx="6.01117" ry="6" stroke="#DD4B39" stroke-width="10"/>
<ellipse cx="256.764" cy="188.5" rx="3.50652" ry="3.5" stroke="#DD4B39"/>
<ellipse opacity="0.1" cx="256.764" cy="189.5" rx="3.50652" ry="3.5" stroke="#DD4B39" stroke-width="10"/>
<path d="M177.5 107.107C166.534 100.077 153.493 96 139.5 96C124.295 96 110.214 100.814 98.6981 109M200.128 130.5C206.399 141.037 210 153.348 210 166.5C210 180.706 205.798 193.931 198.569 205M80.431 128C73.202 139.069 69 152.294 69 166.5C69 180.706 73.202 193.931 80.431 205M99.4107 224.5C110.793 232.382 124.607 237 139.5 237C154.393 237 168.207 232.382 179.589 224.5" stroke="#DD4B39" stroke-linecap="round"/>
<path d="M139 166.986C139 166.986 101.219 102.043 89.2078 116.346C77.1961 130.649 139 166.986 139 166.986ZM139 166.986C139 166.986 183.975 88.9988 198.792 107.049C213.609 125.099 139 166.986 139 166.986ZM139 166.986C139 166.986 208.505 209.619 195.792 223.923C183.079 238.226 139 166.986 139 166.986ZM139 166.986C139 166.986 104.025 230.05 89.2079 216.923C74.391 203.796 139 166.986 139 166.986Z" stroke="#DD4B39" stroke-linecap="round"/>
<g opacity="0.1">
<path d="M173.5 111.107C162.534 104.077 149.493 100 135.5 100C120.295 100 106.214 104.814 94.6981 113M196.128 134.5C202.399 145.037 206 157.348 206 170.5C206 184.706 201.798 197.931 194.569 209M76.431 132C69.202 143.069 65 156.294 65 170.5C65 184.706 69.202 197.931 76.431 209M95.4107 228.5C106.793 236.382 120.607 241 135.5 241C150.393 241 164.207 236.382 175.589 228.5" stroke="#DD4B39" stroke-width="10" stroke-linecap="round"/>
<path d="M135 170.986C135 170.986 97.2194 106.043 85.2078 120.346C73.1961 134.649 135 170.986 135 170.986ZM135 170.986C135 170.986 179.975 92.9988 194.792 111.049C209.609 129.099 135 170.986 135 170.986ZM135 170.986C135 170.986 204.505 213.619 191.792 227.923C179.079 242.226 135 170.986 135 170.986ZM135 170.986C135 170.986 100.025 234.05 85.2079 220.923C70.391 207.796 135 170.986 135 170.986Z" stroke="#DD4B39" stroke-width="10" stroke-linecap="round"/>
</g>
</svg>
