<svg width="284" height="317" viewBox="0 0 284 317" fill="none" xmlns="http://www.w3.org/2000/svg">
<path d="M86.5505 148.338C120.718 126.661 195.49 137.992 184.596 137.007C173.702 136.021 95.4638 143.904 101.901 148.338C108.338 152.772 187.567 137.007 189.548 144.889" stroke="#369CA3" stroke-linecap="round" stroke-linejoin="round"/>
<path d="M8.0356 294.517C132.019 292.27 250.053 289.78 256.01 294.517C261.968 299.254 27.2274 292.71 34.755 302.383C42.2826 312.057 297.975 294.517 246.498 308.002" stroke="#369CA3" stroke-linecap="round" stroke-linejoin="round"/>
<path d="M65 174.079C65 174.079 62.8674 218.202 54.1357 209.859C45.404 201.515 65.7781 156.321 73.3455 156.321C80.9129 156.321 76.7099 211.945 68.1065 207.773C59.503 203.601 73.3455 163.274 80.913 160.493C88.4805 157.712 94.3019 209.859 80.913 211.945C67.5241 214.031 86.1523 156.321 92.5553 160.493C98.9584 164.665 99.5409 204.992 92.5553 204.992C85.5697 204.992 96.6299 160.493 103.616 160.493C110.601 160.493 112.93 203.601 104.78 206.382C96.6299 209.164 110.601 158.407 116.422 158.407C122.243 158.407 125.736 206.382 116.422 204.992C107.108 203.601 117.586 156.321 125.736 156.321C133.886 156.321 137.961 209.859 129.811 209.859C121.661 209.859 124.834 156.321 132.139 156.321C139.444 156.321 147.856 204.992 140.871 206.382C133.885 207.773 136.214 153.54 140.871 153.54C145.528 153.54 165.32 206.382 153.677 206.382C142.035 206.382 147.274 156.321 153.677 156.321C160.08 156.321 169.977 203.601 162.991 204.992C156.006 206.382 160.081 153.54 165.32 153.54C170.559 153.54 189.186 207.773 179.873 209.859C170.559 211.945 170.559 150.759 177.544 153.54C184.529 156.321 196.147 200.82 189.186 203.601C182.226 206.382 179.873 150.063 184.53 149.368C189.186 148.673 207.814 198.039 200.247 201.515C192.679 204.992 189.769 147.977 195.008 146.587C200.247 145.196 220.039 198.039 210.143 198.039C200.247 198.039 198.5 142.415 204.322 141.024C210.143 139.634 233.427 198.039 221.785 201.515C210.143 204.992 212 160.493 212 160.493" stroke="#369CA3" stroke-linecap="round"/>
<path d="M65 210.5C66.5 221.5 65.5145 231.573 67 236.5C68.4855 241.427 92.9879 241.251 92.9879 241.251M92.9879 241.251C92.9879 241.251 68.4855 240.603 67 247.5C65.8825 252.689 66.3011 272.463 70.3716 283.619M92.9879 241.251C92.9879 241.251 95.4638 273.766 79.1229 257.016C62.782 240.266 92.9879 241.251 92.9879 241.251ZM92.9879 241.251C94.6153 246.339 86.0554 275.737 106.358 254.06C126.66 232.383 95.7348 241.959 92.9879 241.251ZM92.9879 241.251C96.9852 239.262 123.689 243.714 107.843 226.471C91.9976 209.228 94.8126 235.805 92.9879 241.251ZM92.9879 241.251C92.2462 236.823 98.4348 213.169 81.1036 224.501C63.7723 235.832 88.6055 238.735 92.9879 241.251ZM213 205C213 224.079 215.089 253.934 212.174 271M175.5 288.707C159.849 288.68 143.829 286.429 139.535 283.619C131.117 278.111 132.107 237.802 139.535 231.398C146.962 224.993 146.52 226.471 167.76 228.934C179.946 230.348 176 245.5 176.5 255C177 264.5 164 266.5 164 260.5C164 257.758 177.367 255.5 176.5 262C176.5 262 177.283 280.203 172.5 285.5C167.717 290.797 147.391 290.767 132.5 290.602" stroke="#369CA3" stroke-linecap="round" stroke-linejoin="round"/>
<g opacity="0.1">
<path d="M81.6115 154.261C115.779 132.584 190.551 143.915 179.657 142.93C168.763 141.944 90.5248 149.827 96.9621 154.261C103.399 158.695 182.628 142.93 184.609 150.812" stroke="#369CA3" stroke-width="10" stroke-linecap="round" stroke-linejoin="round"/>
<path d="M5.0356 297.515C129.019 295.268 247.053 292.778 253.01 297.515C258.968 302.252 24.2274 295.708 31.755 305.381C39.2826 315.055 294.975 297.515 243.498 311" stroke="#369CA3" stroke-width="10" stroke-linecap="round" stroke-linejoin="round"/>
<path d="M59.0317 159.439C59.0317 159.439 57.8674 226.134 49.1357 217.883C40.404 209.632 60.7781 164.94 68.3455 164.94C75.9129 164.94 71.7099 219.945 63.1065 215.82C54.503 211.695 68.3455 171.815 75.913 169.065C83.4805 166.315 89.3019 217.883 75.913 219.945C62.5241 222.008 81.1523 164.94 87.5553 169.065C93.9584 173.19 94.5409 213.07 87.5553 213.07C80.5697 213.07 91.6299 169.065 98.6155 169.065C105.601 169.065 107.93 211.695 99.7797 214.445C91.6299 217.195 105.601 167.002 111.422 167.002C117.243 167.002 120.736 214.445 111.422 213.07C102.108 211.695 112.586 164.94 120.736 164.94C128.886 164.94 132.961 217.883 124.811 217.883C116.661 217.883 119.834 164.94 127.139 164.94C134.444 164.94 142.856 213.07 135.871 214.445C128.885 215.82 131.214 162.189 135.871 162.189C140.528 162.189 160.32 214.445 148.677 214.445C137.035 214.445 142.274 164.94 148.677 164.94C155.08 164.94 164.977 211.695 157.991 213.07C151.006 214.445 155.081 162.189 160.32 162.189C165.559 162.189 184.186 215.82 174.873 217.883C165.559 219.945 165.559 159.439 172.544 162.189C179.529 164.94 191.147 208.944 184.186 211.695C177.226 214.445 174.873 158.751 179.53 158.064C184.186 157.376 202.814 206.194 195.247 209.632C187.679 213.07 184.769 156.689 190.008 155.314C195.247 153.938 215.039 206.194 205.143 206.194C195.247 206.194 193.5 151.188 199.322 149.813C205.143 148.438 228.427 206.194 216.785 209.632C205.143 213.07 210.964 145 210.964 145" stroke="#369CA3" stroke-width="10" stroke-linecap="round"/>
<path d="M74.1838 215.151C68.7368 222.541 65.2706 233.872 66.7561 238.798C68.2416 243.725 88.0488 247.174 88.0488 247.174M88.0488 247.174C88.0488 247.174 65.2706 245.203 63.785 252.1C62.2995 258.997 61.8043 292.991 70.7175 296.932C79.6308 300.873 104.885 295.947 109.342 295.947C113.798 295.947 158.364 299.272 167.278 290.219C178.667 253.085 151.432 256.534 153.413 265.895C155.393 275.255 182.133 263.431 162.821 234.857C154.898 226.482 142.023 230.916 134.596 237.32C127.168 243.725 126.178 284.034 134.596 289.542C143.014 295.05 196.493 298.41 203.921 287.079C211.349 275.748 205.902 232.394 195.008 212.195M88.0488 247.174C88.0488 247.174 90.5247 279.689 74.1838 262.939C57.8429 246.188 88.0488 247.174 88.0488 247.174ZM88.0488 247.174C89.6762 252.262 81.1164 281.66 101.419 259.983C121.721 238.306 90.7958 247.882 88.0488 247.174ZM88.0488 247.174C92.0461 245.185 118.75 249.637 102.904 232.394C87.0585 215.151 89.8736 241.727 88.0488 247.174ZM88.0488 247.174C87.3072 242.746 93.4958 219.092 76.1645 230.423C58.8333 241.754 83.6664 244.658 88.0488 247.174Z" stroke="#369CA3" stroke-width="10" stroke-linecap="round" stroke-linejoin="round"/>
</g>
<path d="M265.129 216.392C265.129 212.241 268.682 208.876 273.065 208.876C277.447 208.876 281 212.241 281 216.392C281 220.542 276.515 223.907 273.065 223.907C269.615 223.907 267.544 222.273 267.544 220.313C267.544 218.352 270.304 217.372 271.339 219.006C272.996 221.62 269.699 223.094 268.924 224.561C266.854 228.482 264.91 235.79 262.369 233.383C260.46 231.575 266.525 225.387 267.544 223.907" stroke="#369CA3" stroke-linecap="round"/>
<path d="M68.2592 51.5165C68.2592 40.7247 59.4707 31.9762 48.6296 31.9762C37.7885 31.9762 29 40.7247 29 51.5165C29 62.3084 40.0952 71.0569 48.6296 71.0569C57.164 71.0569 62.285 66.809 62.285 61.7115C62.285 56.614 55.4575 54.0653 52.8972 58.3132C48.8006 65.1098 56.9557 68.9428 58.8711 72.756C63.9922 82.951 68.8006 101.952 75.0869 95.6947C79.8085 90.9946 64.8066 74.9058 62.285 71.0569" stroke="#369CA3" stroke-linecap="round"/>
<path d="M210.312 108.676C208.363 103.02 211.37 96.8569 217.027 94.9102C222.684 92.9636 228.85 95.9704 230.799 101.626C232.748 107.282 228.538 113.859 224.084 115.391C219.63 116.924 216.191 115.617 215.27 112.946C214.35 110.274 217.453 107.713 219.556 109.479C222.921 112.305 219.357 115.779 219.046 118.121C218.215 124.383 219.137 135.205 214.726 133.054C211.414 131.439 216.337 120.313 216.958 117.843" stroke="#369CA3" stroke-linecap="round"/>
<path opacity="0.1" d="M263.129 218.39C263.129 214.24 266.682 210.875 271.065 210.875C275.447 210.875 279 214.24 279 218.39C279 222.541 274.515 225.906 271.065 225.906C267.615 225.906 265.544 224.272 265.544 222.311C265.544 220.351 268.304 219.371 269.339 221.004C270.996 223.618 267.699 225.093 266.924 226.559C264.854 230.48 262.91 237.789 260.369 235.382C258.46 233.574 264.525 227.386 265.544 225.906" stroke="#369CA3" stroke-width="10" stroke-linecap="round"/>
<path opacity="0.1" d="M62.4239 56.5131C62.4239 45.7213 53.8224 36.9728 43.212 36.9728C32.6015 36.9728 24 45.7213 24 56.5131C24 67.3049 34.8592 76.0534 43.212 76.0534C51.5647 76.0534 56.5768 71.8056 56.5768 66.7081C56.5768 61.6106 49.8946 59.0619 47.3887 63.3098C43.3793 70.1064 51.3609 73.9394 53.2356 77.7526C58.2476 87.9476 62.9538 106.949 69.1063 100.691C73.7274 95.9912 59.0448 79.9024 56.5768 76.0534" stroke="#369CA3" stroke-width="10" stroke-linecap="round"/>
<path opacity="0.1" d="M205.989 112.996C204.04 107.34 207.046 101.177 212.704 99.2306C218.361 97.2839 224.527 100.291 226.476 105.946C228.424 111.602 224.214 118.179 219.761 119.712C215.307 121.244 211.868 119.937 210.947 117.266C210.027 114.595 213.129 112.033 215.232 113.799C218.598 116.626 215.034 120.099 214.723 122.441C213.892 128.704 214.814 139.525 210.403 137.374C207.09 135.759 212.014 124.634 212.635 122.164" stroke="#369CA3" stroke-width="10" stroke-linecap="round"/>
<path opacity="0.1" d="M64.2096 305.537C51.1272 300.439 61.8647 263.469 67.8161 233.762C69.7764 223.976 78.0547 216.382 88.0281 216.025C134.203 214.376 200.03 211.337 209.824 213.802C218.532 215.994 217.182 245.673 216.473 270.256C216.171 280.696 208.252 289.571 197.898 290.943C147.764 297.583 78.1866 310.984 64.2096 305.537Z" fill="#369CA3"/>
<path opacity="0.15" d="M8.98155 123.529C1.70951 126.195 16.5854 153.185 19.3895 159.93C19.4375 160.045 19.5157 160.125 19.6293 160.177C24.6544 162.47 38.2472 164.383 53.9594 154.228C54.0062 154.198 54.0494 154.158 54.0835 154.114C62.3816 143.372 55.0765 130.505 54.031 123.529C52.9834 116.538 40.4114 116 36.7446 116C33.0778 116 16.3152 120.84 8.98155 123.529Z" fill="#55ACEE"/>
<path opacity="0.15" d="M197.388 5.79735C143.017 -14.9075 119.093 26.5022 119.093 26.5022C119.093 26.5022 112.134 47.8608 119.093 63.5529C127.793 83.168 178.902 75.5399 178.902 75.5399C178.902 75.5399 255.44 65.4869 247.41 35.22C241.547 13.1236 251.759 26.5022 197.388 5.79735Z" fill="#55ACEE"/>
</svg>
