<svg width="51" height="50" viewBox="0 0 51 50" fill="none" xmlns="http://www.w3.org/2000/svg">
<g id="icon">
<path id="icon_2" d="M22.2788 23.7097C25.2849 23.7097 27.083 23.7097 27.673 23.7097C27.8696 24.7492 27.8275 25.7606 27.5465 26.744C27.2656 27.6992 26.7739 28.4999 26.0716 29.1461C25.4254 29.7361 24.6387 30.1434 23.7116 30.3682C22.7002 30.5929 21.7169 30.5789 20.7616 30.326C20.0031 30.1294 19.3147 29.7782 18.6967 29.2725C18.0224 28.7387 17.5026 28.1066 17.1374 27.3761C16.5193 26.1961 16.3507 24.9459 16.6317 23.6254C16.716 23.1197 16.8845 22.6421 17.1374 22.1926C17.8117 20.7879 18.8933 19.8326 20.3824 19.3269C21.6747 18.8774 22.9671 18.8915 24.2594 19.3691C24.9337 19.6219 25.5518 20.0012 26.1137 20.5069C26.0575 20.5912 25.9592 20.7036 25.8187 20.844C25.6782 20.9564 25.5939 21.0407 25.5658 21.0969C25.4535 21.1812 25.2709 21.3497 25.018 21.6026C24.7932 21.8274 24.6247 22.01 24.5123 22.1505C24.1471 21.7852 23.7256 21.5324 23.248 21.3919C22.6861 21.2233 22.1242 21.2093 21.5623 21.3497C20.8881 21.4902 20.3121 21.7993 19.8345 22.2769C19.4693 22.6702 19.1883 23.1338 18.9917 23.6676C18.7388 24.398 18.7388 25.1425 18.9917 25.9011C19.2445 26.6316 19.694 27.2216 20.3402 27.6711C20.7335 27.952 21.155 28.1346 21.6045 28.2189C22.0259 28.3032 22.4895 28.3032 22.9952 28.2189C23.4728 28.1346 23.8942 27.9661 24.2594 27.7132C24.9056 27.2918 25.2849 26.7018 25.3973 25.9433C24.3578 25.9433 23.3183 25.9433 22.2788 25.9433C22.2788 25.7747 22.2788 25.4095 22.2788 24.8476C22.2788 24.2576 22.2788 23.8783 22.2788 23.7097ZM34.5 23.8361V25.269H32.5193V27.2075H31.0865V25.269H29.1058V23.8361H31.0865V21.8555H32.5193V23.8361H34.5Z" fill="#DD4B39"/>
<rect x="1.5" y="1" width="48" height="48" rx="24" stroke="#DD4B39" stroke-width="2"/>
</g>
</svg>
