<svg width="375" height="210" viewBox="0 0 375 210" fill="none" xmlns="http://www.w3.org/2000/svg">
<g clip-path="url(#clip0_10_514)" filter="url(#filter0_d_10_514)">
<rect width="375" height="180" fill="url(#paint0_linear_10_514)"/>
<g opacity="0.15">
<path d="M203.685 98.3324C166.658 34.7227 235.015 10.9878 235.015 10.9878C235.015 10.9878 197.514 31.8746 235.015 93.1107C272.516 154.347 194.665 189 194.665 189C194.665 189 240.711 161.942 203.685 98.3324Z" fill="white"/>
<path d="M241.661 79.3446C204.634 15.7349 272.991 -8 272.991 -8C272.991 -8 235.49 12.8868 272.991 74.1229C310.492 135.359 232.641 170.012 232.641 170.012C232.641 170.012 278.687 142.954 241.661 79.3446Z" fill="white"/>
</g>
<rect x="28" y="64" width="50" height="50" rx="25" fill="#EEF3FC"/>
<path d="M89.28 82V70.64H93.312C94.2293 70.64 95.0293 70.7893 95.712 71.088C96.4053 71.3867 96.9813 71.792 97.44 72.304C97.9093 72.816 98.2613 73.4187 98.496 74.112C98.7307 74.7947 98.848 75.5253 98.848 76.304C98.848 77.168 98.7147 77.952 98.448 78.656C98.192 79.3493 97.824 79.9467 97.344 80.448C96.864 80.9387 96.2827 81.3227 95.6 81.6C94.9173 81.8667 94.1547 82 93.312 82H89.28ZM97.024 76.304C97.024 75.7067 96.9387 75.1573 96.768 74.656C96.608 74.1547 96.368 73.728 96.048 73.376C95.728 73.0133 95.3387 72.7307 94.88 72.528C94.4213 72.3253 93.8987 72.224 93.312 72.224H91.072V80.416H93.312C93.9093 80.416 94.4373 80.3147 94.896 80.112C95.3653 79.8987 95.7547 79.6107 96.064 79.248C96.384 78.8747 96.624 78.4373 96.784 77.936C96.944 77.4347 97.024 76.8907 97.024 76.304ZM104.301 82.16C103.65 82.16 103.058 82.048 102.525 81.824C101.992 81.5893 101.533 81.2747 101.149 80.88C100.776 80.4853 100.482 80.0267 100.269 79.504C100.066 78.9813 99.9651 78.4267 99.9651 77.84C99.9651 77.2533 100.066 76.6987 100.269 76.176C100.482 75.6427 100.776 75.1787 101.149 74.784C101.533 74.3787 101.992 74.064 102.525 73.84C103.058 73.6053 103.656 73.488 104.317 73.488C104.968 73.488 105.554 73.6053 106.077 73.84C106.61 74.0747 107.064 74.3893 107.437 74.784C107.81 75.168 108.093 75.6213 108.285 76.144C108.488 76.656 108.589 77.1947 108.589 77.76C108.589 77.888 108.584 78.0107 108.573 78.128C108.562 78.2347 108.552 78.3253 108.541 78.4H101.837C101.869 78.7733 101.954 79.1093 102.093 79.408C102.242 79.7067 102.429 79.968 102.653 80.192C102.888 80.4053 103.149 80.5707 103.437 80.688C103.736 80.8053 104.045 80.864 104.365 80.864C104.6 80.864 104.829 80.8373 105.053 80.784C105.288 80.72 105.501 80.6347 105.693 80.528C105.885 80.4107 106.056 80.272 106.205 80.112C106.354 79.952 106.472 79.776 106.557 79.584L108.061 80.016C107.773 80.6453 107.293 81.1627 106.621 81.568C105.96 81.9627 105.186 82.16 104.301 82.16ZM106.845 77.184C106.813 76.832 106.722 76.5067 106.573 76.208C106.434 75.9093 106.253 75.6587 106.029 75.456C105.805 75.2427 105.544 75.0773 105.245 74.96C104.946 74.8427 104.632 74.784 104.301 74.784C103.97 74.784 103.656 74.8427 103.357 74.96C103.069 75.0773 102.813 75.2427 102.589 75.456C102.365 75.6587 102.184 75.9093 102.045 76.208C101.906 76.5067 101.821 76.832 101.789 77.184H106.845ZM110.041 70.32H111.801V79.584C111.801 79.8933 111.881 80.1387 112.041 80.32C112.201 80.4907 112.425 80.576 112.713 80.576C112.83 80.576 112.963 80.5547 113.113 80.512C113.273 80.4693 113.422 80.4213 113.561 80.368L113.817 81.744C113.561 81.8613 113.257 81.952 112.905 82.016C112.553 82.0907 112.238 82.128 111.961 82.128C111.353 82.128 110.878 81.9627 110.537 81.632C110.206 81.3013 110.041 80.832 110.041 80.224V70.32ZM114.837 82V73.632H116.597V82H114.837ZM114.837 72.256V70.32H116.597V72.256H114.837ZM121.064 82L117.864 73.632H119.672L122.072 80.512L124.488 73.632H126.152L122.952 82H121.064ZM130.911 82.16C130.26 82.16 129.668 82.048 129.135 81.824C128.601 81.5893 128.143 81.2747 127.759 80.88C127.385 80.4853 127.092 80.0267 126.879 79.504C126.676 78.9813 126.575 78.4267 126.575 77.84C126.575 77.2533 126.676 76.6987 126.879 76.176C127.092 75.6427 127.385 75.1787 127.759 74.784C128.143 74.3787 128.601 74.064 129.135 73.84C129.668 73.6053 130.265 73.488 130.927 73.488C131.577 73.488 132.164 73.6053 132.687 73.84C133.22 74.0747 133.673 74.3893 134.047 74.784C134.42 75.168 134.703 75.6213 134.895 76.144C135.097 76.656 135.199 77.1947 135.199 77.76C135.199 77.888 135.193 78.0107 135.183 78.128C135.172 78.2347 135.161 78.3253 135.151 78.4H128.447C128.479 78.7733 128.564 79.1093 128.703 79.408C128.852 79.7067 129.039 79.968 129.263 80.192C129.497 80.4053 129.759 80.5707 130.047 80.688C130.345 80.8053 130.655 80.864 130.975 80.864C131.209 80.864 131.439 80.8373 131.663 80.784C131.897 80.72 132.111 80.6347 132.303 80.528C132.495 80.4107 132.665 80.272 132.815 80.112C132.964 79.952 133.081 79.776 133.167 79.584L134.671 80.016C134.383 80.6453 133.903 81.1627 133.231 81.568C132.569 81.9627 131.796 82.16 130.911 82.16ZM133.455 77.184C133.423 76.832 133.332 76.5067 133.183 76.208C133.044 75.9093 132.863 75.6587 132.639 75.456C132.415 75.2427 132.153 75.0773 131.855 74.96C131.556 74.8427 131.241 74.784 130.911 74.784C130.58 74.784 130.265 74.8427 129.967 74.96C129.679 75.0773 129.423 75.2427 129.199 75.456C128.975 75.6587 128.793 75.9093 128.655 76.208C128.516 76.5067 128.431 76.832 128.399 77.184H133.455ZM141.338 75.152C140.655 75.1733 140.047 75.3333 139.514 75.632C138.991 75.92 138.618 76.336 138.394 76.88V82H136.634V73.632H138.266V75.504C138.554 74.928 138.927 74.4693 139.386 74.128C139.855 73.776 140.357 73.584 140.89 73.552C140.997 73.552 141.082 73.552 141.146 73.552C141.221 73.552 141.285 73.5573 141.338 73.568V75.152ZM154.288 72.224H150.512V82H148.704V72.224H144.912V70.64H154.288V72.224ZM157.519 82.16C156.858 82.16 156.26 82.0427 155.727 81.808C155.204 81.5733 154.756 81.2587 154.383 80.864C154.01 80.4693 153.722 80.0107 153.519 79.488C153.316 78.9547 153.215 78.4 153.215 77.824C153.215 77.248 153.316 76.6987 153.519 76.176C153.722 75.6427 154.01 75.1787 154.383 74.784C154.767 74.3893 155.22 74.0747 155.743 73.84C156.276 73.6053 156.868 73.488 157.519 73.488C158.17 73.488 158.756 73.6053 159.279 73.84C159.812 74.0747 160.266 74.3893 160.639 74.784C161.023 75.1787 161.316 75.6427 161.519 76.176C161.722 76.6987 161.823 77.248 161.823 77.824C161.823 78.4 161.722 78.9547 161.519 79.488C161.316 80.0107 161.023 80.4693 160.639 80.864C160.266 81.2587 159.812 81.5733 159.279 81.808C158.756 82.0427 158.17 82.16 157.519 82.16ZM155.023 77.84C155.023 78.2453 155.087 78.6187 155.215 78.96C155.343 79.3013 155.519 79.6 155.743 79.856C155.967 80.1013 156.228 80.2987 156.527 80.448C156.836 80.5867 157.167 80.656 157.519 80.656C157.871 80.656 158.196 80.5867 158.495 80.448C158.804 80.2987 159.071 80.096 159.295 79.84C159.519 79.584 159.695 79.2853 159.823 78.944C159.951 78.6027 160.015 78.2293 160.015 77.824C160.015 77.4293 159.951 77.0613 159.823 76.72C159.695 76.368 159.519 76.064 159.295 75.808C159.071 75.552 158.804 75.3547 158.495 75.216C158.196 75.0667 157.871 74.992 157.519 74.992C157.178 74.992 156.852 75.0667 156.543 75.216C156.244 75.3653 155.983 75.568 155.759 75.824C155.535 76.08 155.354 76.384 155.215 76.736C155.087 77.0773 155.023 77.4453 155.023 77.84ZM163.384 75.744V73.712H164.84V75.744H163.384ZM163.384 82V79.952H164.84V82H163.384Z" fill="white"/>
<path d="M94.8633 97.6445C94.8633 98.1413 94.7311 98.5833 94.4668 98.9707C94.207 99.3581 93.8538 99.6611 93.4072 99.8799C93.9268 100.103 94.3369 100.429 94.6377 100.857C94.943 101.286 95.0957 101.771 95.0957 102.313C95.0957 103.175 94.804 103.861 94.2207 104.371C93.6419 104.882 92.8786 105.137 91.9307 105.137C90.9736 105.137 90.2057 104.882 89.627 104.371C89.0527 103.856 88.7656 103.17 88.7656 102.313C88.7656 101.776 88.9115 101.29 89.2031 100.857C89.4993 100.424 89.9072 100.096 90.4268 99.873C89.9847 99.6543 89.6361 99.3512 89.3809 98.9639C89.1257 98.5765 88.998 98.1367 88.998 97.6445C88.998 96.806 89.2669 96.1406 89.8047 95.6484C90.3424 95.1562 91.0511 94.9102 91.9307 94.9102C92.8057 94.9102 93.512 95.1562 94.0498 95.6484C94.5921 96.1406 94.8633 96.806 94.8633 97.6445ZM93.8311 102.286C93.8311 101.73 93.6533 101.277 93.2979 100.926C92.9469 100.575 92.4867 100.399 91.917 100.399C91.3473 100.399 90.8893 100.573 90.543 100.919C90.2012 101.265 90.0303 101.721 90.0303 102.286C90.0303 102.851 90.1966 103.296 90.5293 103.619C90.8665 103.943 91.3337 104.104 91.9307 104.104C92.5231 104.104 92.988 103.943 93.3252 103.619C93.6624 103.291 93.8311 102.847 93.8311 102.286ZM91.9307 95.9492C91.4339 95.9492 91.0306 96.1042 90.7207 96.4141C90.4154 96.7194 90.2627 97.1364 90.2627 97.665C90.2627 98.1709 90.4131 98.5811 90.7139 98.8955C91.0192 99.2054 91.4248 99.3604 91.9307 99.3604C92.4365 99.3604 92.8398 99.2054 93.1406 98.8955C93.446 98.5811 93.5986 98.1709 93.5986 97.665C93.5986 97.1592 93.4414 96.7467 93.127 96.4277C92.8125 96.1087 92.4137 95.9492 91.9307 95.9492ZM102.93 100.755C102.93 102.236 102.677 103.337 102.171 104.057C101.665 104.777 100.874 105.137 99.7988 105.137C98.737 105.137 97.9508 104.786 97.4404 104.084C96.93 103.378 96.6657 102.325 96.6475 100.926V99.2373C96.6475 97.7744 96.9004 96.6875 97.4062 95.9766C97.9121 95.2656 98.7051 94.9102 99.7852 94.9102C100.856 94.9102 101.645 95.2542 102.15 95.9424C102.656 96.626 102.916 97.6833 102.93 99.1143V100.755ZM101.665 99.0254C101.665 97.9544 101.515 97.1751 101.214 96.6875C100.913 96.1953 100.437 95.9492 99.7852 95.9492C99.138 95.9492 98.6663 96.193 98.3701 96.6807C98.0739 97.1683 97.9212 97.918 97.9121 98.9297V100.953C97.9121 102.029 98.0671 102.824 98.377 103.339C98.6914 103.849 99.1654 104.104 99.7988 104.104C100.423 104.104 100.886 103.863 101.187 103.38C101.492 102.897 101.651 102.136 101.665 101.097V99.0254ZM110.791 100.755C110.791 102.236 110.538 103.337 110.032 104.057C109.526 104.777 108.736 105.137 107.66 105.137C106.598 105.137 105.812 104.786 105.302 104.084C104.791 103.378 104.527 102.325 104.509 100.926V99.2373C104.509 97.7744 104.762 96.6875 105.268 95.9766C105.773 95.2656 106.566 94.9102 107.646 94.9102C108.717 94.9102 109.506 95.2542 110.012 95.9424C110.518 96.626 110.777 97.6833 110.791 99.1143V100.755ZM109.526 99.0254C109.526 97.9544 109.376 97.1751 109.075 96.6875C108.774 96.1953 108.298 95.9492 107.646 95.9492C106.999 95.9492 106.528 96.193 106.231 96.6807C105.935 97.1683 105.783 97.918 105.773 98.9297V100.953C105.773 102.029 105.928 102.824 106.238 103.339C106.553 103.849 107.027 104.104 107.66 104.104C108.285 104.104 108.747 103.863 109.048 103.38C109.353 102.897 109.513 102.136 109.526 101.097V99.0254ZM118.652 100.755C118.652 102.236 118.399 103.337 117.894 104.057C117.388 104.777 116.597 105.137 115.521 105.137C114.46 105.137 113.674 104.786 113.163 104.084C112.653 103.378 112.388 102.325 112.37 100.926V99.2373C112.37 97.7744 112.623 96.6875 113.129 95.9766C113.635 95.2656 114.428 94.9102 115.508 94.9102C116.579 94.9102 117.367 95.2542 117.873 95.9424C118.379 96.626 118.639 97.6833 118.652 99.1143V100.755ZM117.388 99.0254C117.388 97.9544 117.237 97.1751 116.937 96.6875C116.636 96.1953 116.16 95.9492 115.508 95.9492C114.861 95.9492 114.389 96.193 114.093 96.6807C113.797 97.1683 113.644 97.918 113.635 98.9297V100.953C113.635 102.029 113.79 102.824 114.1 103.339C114.414 103.849 114.888 104.104 115.521 104.104C116.146 104.104 116.608 103.863 116.909 103.38C117.215 102.897 117.374 102.136 117.388 101.097V99.0254ZM127.006 100.563C125.88 100.24 125.06 99.8434 124.545 99.374C124.035 98.9001 123.779 98.3167 123.779 97.624C123.779 96.8402 124.091 96.193 124.716 95.6826C125.345 95.1676 126.16 94.9102 127.163 94.9102C127.847 94.9102 128.455 95.0423 128.988 95.3066C129.526 95.571 129.941 95.9355 130.232 96.4004C130.529 96.8652 130.677 97.3734 130.677 97.9248H129.357C129.357 97.3232 129.166 96.8516 128.783 96.5098C128.4 96.1634 127.86 95.9902 127.163 95.9902C126.516 95.9902 126.01 96.1338 125.646 96.4209C125.285 96.7035 125.105 97.0977 125.105 97.6035C125.105 98.0091 125.276 98.3532 125.618 98.6357C125.965 98.9137 126.55 99.1689 127.375 99.4014C128.204 99.6338 128.852 99.8913 129.316 100.174C129.786 100.452 130.132 100.778 130.355 101.151C130.583 101.525 130.697 101.965 130.697 102.471C130.697 103.277 130.383 103.924 129.754 104.412C129.125 104.895 128.284 105.137 127.231 105.137C126.548 105.137 125.91 105.007 125.317 104.747C124.725 104.483 124.267 104.123 123.943 103.667C123.624 103.211 123.465 102.694 123.465 102.115H124.784C124.784 102.717 125.005 103.193 125.447 103.544C125.894 103.89 126.489 104.063 127.231 104.063C127.924 104.063 128.455 103.922 128.824 103.64C129.193 103.357 129.378 102.972 129.378 102.484C129.378 101.997 129.207 101.621 128.865 101.356C128.523 101.088 127.904 100.823 127.006 100.563ZM138.388 100.372L137.171 101.637V105H135.858V95.0469H137.171V99.9688L141.594 95.0469H143.18L139.263 99.4424L143.487 105H141.915L138.388 100.372ZM145.812 105H144.547V97.6035H145.812V105ZM144.444 95.6416C144.444 95.4365 144.506 95.2633 144.629 95.1221C144.757 94.9808 144.943 94.9102 145.189 94.9102C145.436 94.9102 145.622 94.9808 145.75 95.1221C145.878 95.2633 145.941 95.4365 145.941 95.6416C145.941 95.8467 145.878 96.0176 145.75 96.1543C145.622 96.291 145.436 96.3594 145.189 96.3594C144.943 96.3594 144.757 96.291 144.629 96.1543C144.506 96.0176 144.444 95.8467 144.444 95.6416ZM151.417 98.7383C151.226 98.7064 151.018 98.6904 150.795 98.6904C149.965 98.6904 149.403 99.0436 149.106 99.75V105H147.842V97.6035H149.072L149.093 98.458C149.507 97.7972 150.095 97.4668 150.856 97.4668C151.103 97.4668 151.289 97.4987 151.417 97.5625V98.7383ZM154.65 101.575L153.857 102.402V105H152.593V94.5H153.857V100.851L154.534 100.037L156.838 97.6035H158.376L155.498 100.693L158.711 105H157.228L154.65 101.575ZM161.056 105H159.791V94.5H161.056V105ZM167.652 105C167.579 104.854 167.52 104.594 167.475 104.221C166.887 104.831 166.185 105.137 165.369 105.137C164.64 105.137 164.041 104.932 163.571 104.521C163.106 104.107 162.874 103.583 162.874 102.949C162.874 102.179 163.166 101.582 163.749 101.158C164.337 100.73 165.162 100.516 166.224 100.516H167.454V99.9346C167.454 99.4925 167.322 99.1416 167.058 98.8818C166.793 98.6175 166.404 98.4854 165.889 98.4854C165.438 98.4854 165.059 98.5993 164.754 98.8271C164.449 99.055 164.296 99.3307 164.296 99.6543H163.024C163.024 99.2852 163.154 98.9297 163.414 98.5879C163.678 98.2415 164.034 97.9681 164.48 97.7676C164.932 97.5671 165.426 97.4668 165.964 97.4668C166.816 97.4668 167.484 97.681 167.967 98.1094C168.45 98.5332 168.701 99.1188 168.719 99.8662V103.271C168.719 103.95 168.805 104.49 168.979 104.891V105H167.652ZM165.554 104.036C165.95 104.036 166.326 103.934 166.682 103.729C167.037 103.523 167.295 103.257 167.454 102.929V101.411H166.463C164.913 101.411 164.139 101.865 164.139 102.771C164.139 103.168 164.271 103.478 164.535 103.701C164.799 103.924 165.139 104.036 165.554 104.036ZM171.897 97.6035L171.938 98.5332C172.504 97.8223 173.242 97.4668 174.153 97.4668C175.716 97.4668 176.505 98.3486 176.519 100.112V105H175.254V100.105C175.249 99.5723 175.126 99.1781 174.885 98.9229C174.648 98.6676 174.276 98.54 173.771 98.54C173.36 98.54 173 98.6494 172.69 98.8682C172.381 99.0869 172.139 99.374 171.966 99.7295V105H170.701V97.6035H171.897ZM178.118 101.24C178.118 100.105 178.387 99.194 178.925 98.5059C179.463 97.8132 180.167 97.4668 181.037 97.4668C181.903 97.4668 182.589 97.763 183.095 98.3555V94.5H184.359V105H183.197L183.136 104.207C182.63 104.827 181.926 105.137 181.023 105.137C180.167 105.137 179.467 104.786 178.925 104.084C178.387 103.382 178.118 102.466 178.118 101.336V101.24ZM179.383 101.384C179.383 102.222 179.556 102.879 179.902 103.353C180.249 103.826 180.727 104.063 181.338 104.063C182.14 104.063 182.726 103.703 183.095 102.983V99.5859C182.716 98.8887 182.135 98.54 181.352 98.54C180.732 98.54 180.249 98.7793 179.902 99.2578C179.556 99.7363 179.383 100.445 179.383 101.384ZM195.495 102.402H191.325L190.389 105H189.035L192.836 95.0469H193.984L197.792 105H196.445L195.495 102.402ZM191.722 101.322H195.105L193.41 96.667L191.722 101.322ZM201.032 103.284L202.864 97.6035H204.156L201.504 105H200.54L197.86 97.6035H199.152L201.032 103.284ZM208.347 105.137C207.344 105.137 206.528 104.809 205.899 104.152C205.271 103.492 204.956 102.61 204.956 101.507V101.274C204.956 100.541 205.095 99.8867 205.373 99.3125C205.656 98.7337 206.048 98.2826 206.549 97.959C207.055 97.6309 207.602 97.4668 208.189 97.4668C209.151 97.4668 209.898 97.7835 210.432 98.417C210.965 99.0505 211.231 99.9574 211.231 101.138V101.664H206.221C206.239 102.393 206.451 102.983 206.856 103.435C207.267 103.881 207.786 104.104 208.415 104.104C208.862 104.104 209.24 104.013 209.55 103.831C209.86 103.649 210.131 103.407 210.363 103.106L211.136 103.708C210.516 104.66 209.586 105.137 208.347 105.137ZM208.189 98.5059C207.679 98.5059 207.251 98.6927 206.904 99.0664C206.558 99.4355 206.344 99.9551 206.262 100.625H209.967V100.529C209.93 99.8867 209.757 99.39 209.447 99.0391C209.137 98.6836 208.718 98.5059 208.189 98.5059ZM212.66 106.982L211.942 106.49C212.371 105.893 212.594 105.278 212.612 104.645V103.503H213.85V104.494C213.85 104.954 213.736 105.415 213.508 105.875C213.285 106.335 213.002 106.704 212.66 106.982ZM226.441 101.842C226.318 102.895 225.929 103.708 225.272 104.282C224.621 104.852 223.753 105.137 222.668 105.137C221.492 105.137 220.549 104.715 219.838 103.872C219.132 103.029 218.778 101.901 218.778 100.488V99.5312C218.778 98.6061 218.942 97.7926 219.271 97.0908C219.603 96.389 220.073 95.8512 220.679 95.4775C221.285 95.0993 221.987 94.9102 222.784 94.9102C223.841 94.9102 224.689 95.2064 225.327 95.7988C225.965 96.3867 226.337 97.2025 226.441 98.2461H225.122C225.008 97.4531 224.76 96.8789 224.377 96.5234C223.999 96.168 223.468 95.9902 222.784 95.9902C221.946 95.9902 221.287 96.3001 220.809 96.9199C220.335 97.5397 220.098 98.4215 220.098 99.5654V100.529C220.098 101.609 220.323 102.468 220.774 103.106C221.226 103.744 221.857 104.063 222.668 104.063C223.397 104.063 223.955 103.899 224.343 103.571C224.735 103.239 224.994 102.662 225.122 101.842H226.441ZM229.306 98.499C229.866 97.8109 230.595 97.4668 231.493 97.4668C233.056 97.4668 233.845 98.3486 233.858 100.112V105H232.594V100.105C232.589 99.5723 232.466 99.1781 232.225 98.9229C231.988 98.6676 231.616 98.54 231.11 98.54C230.7 98.54 230.34 98.6494 230.03 98.8682C229.72 99.0869 229.479 99.374 229.306 99.7295V105H228.041V94.5H229.306V98.499ZM237.126 105H235.861V97.6035H237.126V105ZM235.759 95.6416C235.759 95.4365 235.82 95.2633 235.943 95.1221C236.071 94.9808 236.258 94.9102 236.504 94.9102C236.75 94.9102 236.937 94.9808 237.064 95.1221C237.192 95.2633 237.256 95.4365 237.256 95.6416C237.256 95.8467 237.192 96.0176 237.064 96.1543C236.937 96.291 236.75 96.3594 236.504 96.3594C236.258 96.3594 236.071 96.291 235.943 96.1543C235.82 96.0176 235.759 95.8467 235.759 95.6416ZM242.123 104.104C242.574 104.104 242.968 103.968 243.306 103.694C243.643 103.421 243.83 103.079 243.866 102.669H245.062C245.04 103.093 244.894 103.496 244.625 103.879C244.356 104.262 243.996 104.567 243.545 104.795C243.098 105.023 242.624 105.137 242.123 105.137C241.116 105.137 240.314 104.802 239.717 104.132C239.124 103.457 238.828 102.537 238.828 101.37V101.158C238.828 100.438 238.96 99.7979 239.225 99.2373C239.489 98.6768 239.867 98.2415 240.359 97.9316C240.856 97.6217 241.442 97.4668 242.116 97.4668C242.946 97.4668 243.634 97.7152 244.181 98.2119C244.732 98.7087 245.026 99.3535 245.062 100.146H243.866C243.83 99.668 243.647 99.276 243.319 98.9707C242.996 98.6608 242.595 98.5059 242.116 98.5059C241.474 98.5059 240.975 98.7383 240.619 99.2031C240.268 99.6634 240.093 100.331 240.093 101.206V101.445C240.093 102.298 240.268 102.954 240.619 103.414C240.97 103.874 241.471 104.104 242.123 104.104ZM251.051 105C250.978 104.854 250.919 104.594 250.873 104.221C250.285 104.831 249.583 105.137 248.768 105.137C248.038 105.137 247.439 104.932 246.97 104.521C246.505 104.107 246.272 103.583 246.272 102.949C246.272 102.179 246.564 101.582 247.147 101.158C247.735 100.73 248.56 100.516 249.622 100.516H250.853V99.9346C250.853 99.4925 250.72 99.1416 250.456 98.8818C250.192 98.6175 249.802 98.4854 249.287 98.4854C248.836 98.4854 248.458 98.5993 248.152 98.8271C247.847 99.055 247.694 99.3307 247.694 99.6543H246.423C246.423 99.2852 246.553 98.9297 246.812 98.5879C247.077 98.2415 247.432 97.9681 247.879 97.7676C248.33 97.5671 248.825 97.4668 249.362 97.4668C250.215 97.4668 250.882 97.681 251.365 98.1094C251.848 98.5332 252.099 99.1188 252.117 99.8662V103.271C252.117 103.95 252.204 104.49 252.377 104.891V105H251.051ZM248.952 104.036C249.349 104.036 249.725 103.934 250.08 103.729C250.436 103.523 250.693 103.257 250.853 102.929V101.411H249.861C248.312 101.411 247.537 101.865 247.537 102.771C247.537 103.168 247.669 103.478 247.934 103.701C248.198 103.924 248.537 104.036 248.952 104.036ZM253.799 101.24C253.799 100.087 254.065 99.1712 254.599 98.4922C255.132 97.8086 255.838 97.4668 256.718 97.4668C257.62 97.4668 258.324 97.7858 258.83 98.4238L258.892 97.6035H260.047V104.822C260.047 105.779 259.762 106.534 259.192 107.085C258.627 107.636 257.866 107.912 256.909 107.912C256.376 107.912 255.854 107.798 255.344 107.57C254.833 107.342 254.444 107.03 254.175 106.634L254.831 105.875C255.373 106.545 256.036 106.88 256.82 106.88C257.436 106.88 257.914 106.707 258.256 106.36C258.602 106.014 258.775 105.526 258.775 104.897V104.262C258.27 104.845 257.579 105.137 256.704 105.137C255.838 105.137 255.136 104.788 254.599 104.091C254.065 103.394 253.799 102.443 253.799 101.24ZM255.07 101.384C255.07 102.218 255.241 102.874 255.583 103.353C255.925 103.826 256.403 104.063 257.019 104.063C257.816 104.063 258.402 103.701 258.775 102.977V99.5996C258.388 98.8932 257.807 98.54 257.032 98.54C256.417 98.54 255.936 98.7793 255.59 99.2578C255.243 99.7363 255.07 100.445 255.07 101.384ZM261.626 101.233C261.626 100.509 261.767 99.8571 262.05 99.2783C262.337 98.6995 262.733 98.2529 263.239 97.9385C263.75 97.624 264.331 97.4668 264.982 97.4668C265.99 97.4668 266.803 97.8154 267.423 98.5127C268.047 99.21 268.359 100.137 268.359 101.295V101.384C268.359 102.104 268.22 102.751 267.942 103.325C267.669 103.895 267.275 104.339 266.76 104.658C266.249 104.977 265.661 105.137 264.996 105.137C263.993 105.137 263.18 104.788 262.556 104.091C261.936 103.394 261.626 102.471 261.626 101.322V101.233ZM262.897 101.384C262.897 102.204 263.087 102.863 263.465 103.359C263.848 103.856 264.358 104.104 264.996 104.104C265.639 104.104 266.149 103.854 266.527 103.353C266.906 102.847 267.095 102.14 267.095 101.233C267.095 100.422 266.901 99.766 266.514 99.2646C266.131 98.7588 265.62 98.5059 264.982 98.5059C264.358 98.5059 263.854 98.7542 263.472 99.251C263.089 99.7477 262.897 100.459 262.897 101.384ZM269.904 106.982L269.187 106.49C269.615 105.893 269.838 105.278 269.856 104.645V103.503H271.094V104.494C271.094 104.954 270.98 105.415 270.752 105.875C270.529 106.335 270.246 106.704 269.904 106.982ZM277.772 105H276.46V95.0469H277.772V105ZM281.498 103.927H286.215V105H280.179V95.0469H281.498V103.927ZM291.014 104.337C291.014 104.118 291.077 103.936 291.205 103.79C291.337 103.644 291.533 103.571 291.793 103.571C292.053 103.571 292.249 103.644 292.381 103.79C292.518 103.936 292.586 104.118 292.586 104.337C292.586 104.547 292.518 104.722 292.381 104.863C292.249 105.005 292.053 105.075 291.793 105.075C291.533 105.075 291.337 105.005 291.205 104.863C291.077 104.722 291.014 104.547 291.014 104.337ZM294.705 104.337C294.705 104.118 294.769 103.936 294.896 103.79C295.029 103.644 295.225 103.571 295.484 103.571C295.744 103.571 295.94 103.644 296.072 103.79C296.209 103.936 296.277 104.118 296.277 104.337C296.277 104.547 296.209 104.722 296.072 104.863C295.94 105.005 295.744 105.075 295.484 105.075C295.225 105.075 295.029 105.005 294.896 104.863C294.769 104.722 294.705 104.547 294.705 104.337ZM298.396 104.337C298.396 104.118 298.46 103.936 298.588 103.79C298.72 103.644 298.916 103.571 299.176 103.571C299.436 103.571 299.632 103.644 299.764 103.79C299.9 103.936 299.969 104.118 299.969 104.337C299.969 104.547 299.9 104.722 299.764 104.863C299.632 105.005 299.436 105.075 299.176 105.075C298.916 105.075 298.72 105.005 298.588 104.863C298.46 104.722 298.396 104.547 298.396 104.337Z" fill="white"/>
<g clip-path="url(#clip1_10_514)">
<path d="M341 105.3L345.8 100.5L341 95.7" stroke="white" stroke-width="1.5" stroke-linecap="round" stroke-linejoin="round"/>
</g>
</g>
<defs>
<filter id="filter0_d_10_514" x="-20" y="-10" width="415" height="220" filterUnits="userSpaceOnUse" color-interpolation-filters="sRGB">
<feFlood flood-opacity="0" result="BackgroundImageFix"/>
<feColorMatrix in="SourceAlpha" type="matrix" values="0 0 0 0 0 0 0 0 0 0 0 0 0 0 0 0 0 0 127 0" result="hardAlpha"/>
<feOffset dy="10"/>
<feGaussianBlur stdDeviation="10"/>
<feColorMatrix type="matrix" values="0 0 0 0 0 0 0 0 0 0.509804 0 0 0 0 0.294118 0 0 0 0.25 0"/>
<feBlend mode="normal" in2="BackgroundImageFix" result="effect1_dropShadow_10_514"/>
<feBlend mode="normal" in="SourceGraphic" in2="effect1_dropShadow_10_514" result="shape"/>
</filter>
<linearGradient id="paint0_linear_10_514" x1="0" y1="0" x2="375" y2="180" gradientUnits="userSpaceOnUse">
<stop stop-color="#59ECA6"/>
<stop offset="1" stop-color="#369CA3"/>
</linearGradient>
<clipPath id="clip0_10_514">
<rect width="375" height="180" fill="white"/>
</clipPath>
<clipPath id="clip1_10_514">
<rect width="7.2" height="12" fill="white" transform="translate(339.8 94.5)"/>
</clipPath>
</defs>
</svg>
