<svg width="279" height="271" viewBox="0 0 279 271" fill="none" xmlns="http://www.w3.org/2000/svg">
<ellipse opacity="0.1" cx="114.166" cy="186.517" rx="35.0652" ry="35.0715" fill="#369CA3"/>
<path d="M120.678 185.515C117.171 188.521 111.104 180.004 115.891 172.99C120.678 165.975 141.717 172.377 136.207 188.967C130.696 205.556 113.164 205.556 102.143 194.032C91.1228 182.509 93.8501 155.454 115.891 151.446C137.932 147.438 165.762 171.487 146.726 203.051C127.691 234.615 71.5866 215.075 74.5922 172.99C77.5978 130.904 127.468 127.619 143.108 139.533C158.749 151.446 150.734 156.456 145.724 150.444C140.715 144.431 194.73 104.432 202.83 99.3395C215.373 91.454 231.884 128.399 228.879 126.896C225.873 125.393 205.836 94.8303 210.344 93.3273C214.853 91.8242 223.87 103.348 222.868 105.352C221.866 107.356 209.844 94.3293 216.857 89.3191C223.87 84.3089 236.894 116.875 231.884 110.863C226.875 104.851 217.858 89.3191 222.868 84.8099C227.877 80.3007 238.397 97.3354 237.896 100.342C237.395 103.348 226.875 81.3028 230.883 79.2987C234.89 77.2946 254.927 104.35 251.421 106.354C247.914 108.358 233.888 78.7977 237.896 75.7916C241.903 72.7854 251.922 87.315 248.415 89.3191C244.909 91.3232 240.741 75.7915 240.741 75.7915" stroke="#369CA3" stroke-linecap="round"/>
<path opacity="0.1" d="M115.668 191.527C112.162 194.533 106.095 186.016 110.882 179.002C115.668 171.987 136.708 178.389 131.197 194.979C125.687 211.568 108.155 211.568 97.134 200.045C86.1136 188.521 88.8408 161.466 110.882 157.458C132.923 153.45 160.752 177.499 141.717 209.063C122.681 240.627 66.5773 221.088 69.5829 179.002C72.5885 136.916 122.459 133.632 138.099 145.545C153.739 157.458 145.724 162.468 140.715 156.456C135.706 150.444 189.721 110.444 197.821 105.352C210.364 97.4662 226.875 134.411 223.87 132.908C220.864 131.405 200.827 100.843 205.335 99.3395C209.844 97.8364 218.86 109.36 217.858 111.364C216.857 113.368 204.834 100.342 211.847 95.3313C218.86 90.3211 231.885 122.887 226.875 116.875C221.866 110.863 212.849 95.3313 217.858 90.8221C222.868 86.313 233.387 103.348 232.886 106.354C232.385 109.36 221.866 87.315 225.873 85.3109C229.881 83.3068 249.918 110.362 246.412 112.366C242.905 114.37 228.879 84.8099 232.886 81.8038C236.894 78.7976 246.912 93.3272 243.406 95.3313C239.899 97.3354 235.732 81.8037 235.732 81.8037" stroke="#369CA3" stroke-width="10" stroke-linecap="round"/>
<path opacity="0.15" d="M21.5953 70.8201C12.1483 74.3047 31.5301 109.641 35.1108 118.352C35.1583 118.467 35.2353 118.545 35.3485 118.598C41.824 121.6 59.4971 124.145 79.9316 110.849C79.9784 110.818 80.0215 110.778 80.0555 110.734C90.8391 96.719 81.3593 79.9241 80.0032 70.8201C78.6448 61.7014 62.345 61 57.5908 61C52.8367 61 31.1035 67.3129 21.5953 70.8201Z" fill="#55ACEE"/>
<path opacity="0.15" d="M215.531 5.19503C167.248 -13.3587 146.004 23.7487 146.004 23.7487C146.004 23.7487 139.824 42.8883 146.004 56.95C153.729 74.5272 199.114 67.6916 199.114 67.6916C199.114 67.6916 267.082 58.6831 259.95 31.5608C254.744 11.7601 263.813 23.7487 215.531 5.19503Z" fill="#55ACEE"/>
<path opacity="0.15" d="M202.005 203.577C196.369 205.701 168.262 223.76 178.053 236.142C180.619 239.388 183.57 239.6 186.507 242.513C191.78 247.744 194.679 254.265 196.369 258.796C198.483 264.459 205.105 268.195 212.573 270.123C217.901 271.498 225.018 271.067 226.662 270.123C228.306 269.179 236.601 263.829 242.161 258.796C252.834 249.134 264 243.221 264 229.063C264 217.736 248.988 227.811 242.161 221.983C234.747 215.655 240.482 203.306 231.594 199.33C226.065 196.856 222.08 198.423 216.095 199.33C210.414 200.19 207.641 201.453 202.005 203.577Z" fill="#55ACEE"/>
<path d="M121.717 90.5C124.055 90.5 129.431 91.2 132.236 94M129.732 86.5C127.895 88.6667 124.121 93.7 123.721 96.5" stroke="#369CA3" stroke-linecap="round"/>
<path opacity="0.1" d="M121.717 94.5C124.055 94.5 129.431 95.2 132.236 98M129.732 90.5C127.895 92.6667 124.121 97.7 123.721 100.5" stroke="#369CA3" stroke-width="10" stroke-linecap="round"/>
<path d="M274 167C271.662 167 266.286 167.7 263.48 170.5M265.985 163C267.822 165.167 271.596 170.2 271.996 173" stroke="#369CA3" stroke-linecap="round"/>
<path opacity="0.1" d="M274 171C271.662 171 266.286 171.7 263.48 174.5M265.985 167C267.822 169.167 271.596 174.2 271.996 177" stroke="#369CA3" stroke-width="10" stroke-linecap="round"/>
<path d="M35.0261 242C37.3638 242 42.7405 241.3 45.5457 238.5M43.041 246C41.2043 243.833 37.4306 238.8 37.0298 236" stroke="#369CA3" stroke-linecap="round"/>
<path opacity="0.1" d="M35.0261 238C37.3638 238 42.7405 237.3 45.5457 234.5M43.041 242C41.2043 239.833 37.4306 234.8 37.0298 232" stroke="#369CA3" stroke-width="10" stroke-linecap="round"/>
<ellipse cx="42.0689" cy="26" rx="8.0149" ry="8" stroke="#369CA3"/>
<ellipse opacity="0.1" cx="42.0689" cy="29" rx="8.0149" ry="8" stroke="#369CA3" stroke-width="10"/>
<ellipse cx="11.0112" cy="158" rx="6.01117" ry="6" stroke="#369CA3"/>
<ellipse opacity="0.1" cx="11.0112" cy="160" rx="6.01117" ry="6" stroke="#369CA3" stroke-width="10"/>
<ellipse cx="146.763" cy="248.5" rx="3.50652" ry="3.5" stroke="#369CA3"/>
<ellipse opacity="0.1" cx="146.763" cy="249.5" rx="3.50652" ry="3.5" stroke="#369CA3" stroke-width="10"/>
</svg>
