<svg width="285" height="312" viewBox="0 0 285 312" fill="none" xmlns="http://www.w3.org/2000/svg">
<path opacity="0.1" d="M123.169 78.4579C129.894 82.0816 142.84 81.929 142.346 73.2248C141.851 64.5205 126.116 70.3613 129.126 73.4265C132.136 76.4916 139.894 64.1183 133.345 60.9918C126.797 57.8653 121.459 68.018 121.635 75.6524" stroke="#369CA3" stroke-width="10" stroke-linecap="round"/>
<path d="M131.554 74.6571C138.279 78.2808 151.225 78.1283 150.731 69.424C150.236 60.7197 134.501 66.5605 137.51 69.6257C140.52 72.6909 148.279 60.3175 141.73 57.191C135.182 54.0645 129.843 64.2172 130.02 71.8517" stroke="#369CA3" stroke-linecap="round"/>
<path d="M242.762 267.758C242.762 267.758 193.666 245.016 182.432 253.271C171.198 261.525 244.094 255.555 247.754 262.768C251.414 269.98 211.847 251.451 211.847 251.451C211.847 251.451 214.791 243.29 220.171 203.219C225.551 163.147 184.292 101.067 274.684 127.489C293.983 133.131 255.99 202.178 223.95 192.688C191.91 183.198 194.557 102.346 208.761 101.513C303.137 89.0579 240.238 166.918 230.256 187.383C220.274 207.848 216.789 244.288 221.784 250.28C226.779 256.272 235.768 256.275 235.768 256.275" stroke="#369CA3"/>
<path opacity="0.1" d="M240.722 269.728C240.722 269.728 191.627 247.002 180.39 255.258C169.153 263.515 242.058 257.526 245.716 264.737C249.374 271.947 209.808 253.431 209.808 253.431C209.808 253.431 212.755 245.27 218.146 205.201C223.537 165.132 177.796 98.077 268.19 124.473C287.489 130.108 253.969 204.151 221.928 194.67C189.887 185.189 192.557 104.344 206.762 103.508C301.151 91.0287 238.225 168.898 228.237 189.364C218.248 209.829 214.753 246.268 219.747 252.258C224.741 258.248 233.73 258.248 233.73 258.248" stroke="#369CA3" stroke-width="10"/>
<path d="M146.333 199.347C109.128 197.166 79.2224 217.093 66.9269 252.258C47.0667 309.058 227.96 327.904 220.246 268.231C215.189 229.11 185.731 201.656 146.333 199.347Z" fill="#E1F0F1"/>
<g opacity="0.1">
<path d="M80.3324 118C70.2566 134.098 97.1254 134.902 80.3324 151" stroke="#369CA3" stroke-width="10" stroke-linecap="round"/>
<path d="M172.053 124.422C160.567 134.405 182.041 138.898 167.558 148.881M261.448 196.801C254.456 208.78 268.939 212.275 256.953 222.757" stroke="#369CA3" stroke-width="10" stroke-linecap="round"/>
<path d="M104.133 187.616C104.133 192.858 112.124 202.841 128.105 199.846C144.086 196.851 153.075 177.633 145.085 174.389C137.094 171.144 133.099 183.374 136.595 182.874C140.091 182.375 134.098 170.894 128.105 175.137C122.112 179.38 125.657 189.068 138.093 195.353C152.438 202.603 180.044 204.228 200.02 231.792C219.997 259.357 212.006 289.196 213.504 267.233C215.002 245.27 182.291 200.844 129.922 204.338C86.5308 207.233 66.2159 238.306 60.1789 253.921C58.3967 258.531 59.7396 263.586 64.1234 265.869C93.5552 281.193 206.882 286.249 205.514 276.218C204.015 265.236 137.094 273.625 109.127 276.929C81.1603 280.232 64.8176 283.792 46.5483 272.612C24.5828 259.171 43.7045 240.777 43.7045 228.298C43.7045 215.819 37.8453 204.891 27.7233 200.844" stroke="#369CA3" stroke-width="10" stroke-linecap="round"/>
<path d="M51.1955 224.055C60.6844 243.273 44.7033 252.258 38.3218 272.917C34.6944 303.172 122.691 299.74 139.092 299.595M5 234.038C26.5856 250.261 9.56014 275.057 26.5856 292.967C47.2003 314.653 91.6114 306.472 139.092 299.595M139.092 299.595C197.258 291.17 263.833 286.947 264.444 296.184C265.099 306.08 192.554 299.121 139.092 299.595Z" stroke="#369CA3" stroke-width="10" stroke-linecap="round"/>
</g>
<path d="M90.3324 106C80.2566 122.585 107.125 123.415 90.3324 140" stroke="#369CA3" stroke-linecap="round"/>
<path d="M178.046 117.434C166.56 127.417 188.034 131.91 173.551 141.893M267.441 189.812C260.449 201.792 274.932 205.286 262.946 215.769" stroke="#369CA3" stroke-linecap="round"/>
<path d="M110.126 180.628C110.126 185.869 118.117 195.852 134.098 192.857C150.079 189.863 157.5 176 151.078 170.4C144.656 164.801 139.004 174.499 142.5 174C145.996 173.501 138 166.5 134.098 171.149C130.196 175.798 131.649 182.08 144.086 188.365C158.431 195.615 186.037 197.239 206.013 224.804C225.989 252.368 217.999 282.207 219.497 260.244C220.995 238.281 188.284 193.856 135.915 197.35C92.5237 200.245 72.2088 231.317 66.1718 246.933C64.3897 251.543 65.7325 256.598 70.1163 258.88C99.5481 274.205 212.875 279.261 211.507 269.229C210.008 258.248 143.087 266.637 115.12 269.941C87.1532 273.244 70.8105 276.804 52.5413 265.624C30.5757 252.182 49.6974 233.789 49.6974 221.31C49.6974 208.831 43.8383 197.903 33.7162 193.856" stroke="#369CA3" stroke-linecap="round"/>
<path d="M57.1884 217.067C66.6773 236.285 50.6962 245.269 44.3147 265.929C40.6873 296.184 128.684 292.752 145.085 292.607M10.9929 227.05C32.5785 243.273 15.5531 268.069 32.5786 285.979C53.1932 307.665 97.6043 299.484 145.085 292.607M145.085 292.607C203.251 284.182 269.826 279.959 270.437 289.196C271.092 299.091 198.547 292.133 145.085 292.607Z" stroke="#369CA3" stroke-linecap="round"/>
<path opacity="0.15" d="M277.179 142.442C277.179 133.445 208.841 129.254 204.764 136.453C200.688 143.651 194.627 188.098 227.238 193.856C259.849 199.615 277.179 151.44 277.179 142.442Z" fill="#369CA3"/>
<path opacity="0.1" d="M33.8859 114.2C33.5298 106.573 26.7306 95.56 19.5202 100.466C12.3097 105.373 25.424 115.845 26.5025 111.688C27.581 107.531 12.9731 107.257 13.6645 114.477C14.3559 121.697 25.813 121.042 32.27 116.959" stroke="#369CA3" stroke-width="10" stroke-linecap="round"/>
<path d="M36.9764 105.528C36.6203 97.9007 29.8212 86.8881 22.6107 91.7946C15.4002 96.7011 28.5145 107.173 29.593 103.016C30.6715 98.8591 16.0636 98.5852 16.755 105.805C17.4464 113.025 28.9035 112.37 35.3605 108.287" stroke="#369CA3" stroke-linecap="round"/>
<path opacity="0.1" d="M55.5735 31.6563C61.9283 27.4226 67.866 15.9227 59.9467 12.2691C52.0274 8.61558 49.8052 25.2504 53.924 24.0337C58.0429 22.8171 50.754 10.1545 44.9214 14.4658C39.0887 18.777 45.5513 28.2602 52.3764 31.6922" stroke="#369CA3" stroke-width="10" stroke-linecap="round"/>
<path d="M64.5984 29.8391C70.9532 25.6054 76.8909 14.1055 68.9716 10.4519C61.0523 6.79838 58.8301 23.4332 62.9489 22.2165C67.0678 20.9999 59.7789 8.33734 53.9463 12.6486C48.1136 16.9598 54.5762 26.443 61.4013 29.875" stroke="#369CA3" stroke-linecap="round"/>
<path opacity="0.15" d="M234.447 5.24454C229.481 7.76266 225.856 16.5198 226.004 24.8859C226.124 31.6065 226.959 36.5948 231.964 41.0019C238.847 47.0627 246.277 42.2694 255.306 41.0019C267.032 39.3559 281.132 43.52 284.111 31.433C287.091 19.346 282.273 12.5036 274.179 5.24454C262.556 -5.1788 239.414 2.72642 234.447 5.24454Z" fill="#55ACEE"/>
</svg>
