<svg width="266" height="271" viewBox="0 0 266 271" fill="none" xmlns="http://www.w3.org/2000/svg">
<path opacity="0.15" d="M21.5953 70.8201C12.1483 74.3047 31.5301 109.641 35.1108 118.352C35.1583 118.467 35.2353 118.545 35.3485 118.598C41.824 121.6 59.4971 124.145 79.9316 110.849C79.9784 110.818 80.0215 110.778 80.0555 110.734C90.8391 96.719 81.3593 79.9241 80.0032 70.8201C78.6448 61.7014 62.345 61 57.5908 61C52.8367 61 31.1035 67.3129 21.5953 70.8201Z" fill="#55ACEE"/>
<path opacity="0.15" d="M229.326 3.53864C196.374 -9.09937 181.875 16.1767 181.875 16.1767C181.875 16.1767 177.657 29.2138 181.875 38.792C187.147 50.7649 218.122 46.1088 218.122 46.1088C218.122 46.1088 264.509 39.9725 259.642 21.4979C256.089 8.01052 262.278 16.1767 229.326 3.53864Z" fill="#55ACEE"/>
<path opacity="0.15" d="M217.504 220.202C213.277 221.802 192.196 235.408 199.54 244.737C201.465 247.183 203.678 247.343 205.88 249.537C209.835 253.479 212.009 258.391 213.277 261.805C214.862 266.072 219.828 268.886 225.429 270.339C229.426 271.376 234.764 271.05 235.997 270.339C237.23 269.628 243.451 265.597 247.621 261.805C255.625 254.526 264 250.071 264 239.403C264 230.869 252.741 238.461 247.621 234.07C242.061 229.302 246.362 219.998 239.695 217.002C235.549 215.138 232.56 216.319 228.071 217.002C223.811 217.65 221.731 218.602 217.504 220.202Z" fill="#55ACEE"/>
<path d="M137 52C138.111 52 140.667 52.35 142 53.75M140.81 50C139.937 51.0833 138.143 53.6 137.952 55" stroke="#369CA3" stroke-linecap="round"/>
<path opacity="0.1" d="M137 54C138.111 54 140.667 54.35 142 55.75M140.81 52C139.937 53.0833 138.143 55.6 137.952 57" stroke="#369CA3" stroke-width="10" stroke-linecap="round"/>
<path d="M254 97C251.662 97 246.286 97.7 243.48 100.5M245.985 93C247.822 95.1667 251.596 100.2 251.996 103" stroke="#369CA3" stroke-linecap="round"/>
<path opacity="0.1" d="M254 101C251.662 101 246.286 101.7 243.48 104.5M245.985 97C247.822 99.1667 251.596 104.2 251.996 107" stroke="#369CA3" stroke-width="10" stroke-linecap="round"/>
<path d="M55.0261 262C57.3638 262 62.7405 261.3 65.5457 258.5M63.041 266C61.2043 263.833 57.4306 258.8 57.0298 256" stroke="#369CA3" stroke-linecap="round"/>
<path opacity="0.1" d="M55.0261 258C57.3638 258 62.7405 257.3 65.5457 254.5M63.041 262C61.2043 259.833 57.4306 254.8 57.0298 252" stroke="#369CA3" stroke-width="10" stroke-linecap="round"/>
<ellipse cx="42.0689" cy="26" rx="8.0149" ry="8" stroke="#369CA3"/>
<ellipse opacity="0.1" cx="42.0689" cy="29" rx="8.0149" ry="8" stroke="#369CA3" stroke-width="10"/>
<ellipse cx="11.0112" cy="158" rx="6.01117" ry="6" stroke="#369CA3"/>
<ellipse opacity="0.1" cx="11.0112" cy="160" rx="6.01117" ry="6" stroke="#369CA3" stroke-width="10"/>
<ellipse cx="256.763" cy="188.5" rx="3.50652" ry="3.5" stroke="#369CA3"/>
<ellipse opacity="0.1" cx="256.763" cy="189.5" rx="3.50652" ry="3.5" stroke="#369CA3" stroke-width="10"/>
<path d="M148.828 201.247C148.828 201.247 72.3285 157.747 86.8285 150.747C101.329 143.747 127.829 195.247 127.829 195.247C127.829 195.247 213.828 103.747 197.328 91.7472C180.828 79.7474 127.829 216.247 127.829 216.247" stroke="#369CA3" stroke-linecap="round"/>
<path d="M163.904 100.338C156.3 97.5323 148.079 96 139.5 96C100.564 96 69 127.564 69 166.5C69 205.436 100.564 237 139.5 237C178.436 237 210 205.436 210 166.5C210 153.434 206.446 141.199 200.251 130.708" stroke="#369CA3" stroke-linecap="round"/>
<g opacity="0.1">
<path d="M142.828 206.247C142.828 206.247 66.3285 162.747 80.8285 155.747C95.3285 148.747 121.829 200.247 121.829 200.247C121.829 200.247 207.828 108.747 191.328 96.7472C174.828 84.7474 121.829 221.247 121.829 221.247" stroke="#369CA3" stroke-width="10" stroke-linecap="round"/>
<path d="M157.904 105.338C150.3 102.532 142.079 101 133.5 101C94.5639 101 63 132.564 63 171.5C63 210.436 94.5639 242 133.5 242C172.436 242 204 210.436 204 171.5C204 158.434 200.446 146.199 194.251 135.708" stroke="#369CA3" stroke-width="10" stroke-linecap="round"/>
</g>
<circle opacity="0.1" cx="139" cy="178" r="54" fill="#369CA3"/>
</svg>
