<svg width="298" height="312" viewBox="0 0 298 312" fill="none" xmlns="http://www.w3.org/2000/svg">
<g opacity="0.1">
<path d="M238.948 247.636C235.948 244.636 239.948 239.636 244.448 241.136C248.948 242.636 250.448 253.636 238.948 255.136C229.393 255.719 224.198 247.108 224.948 238.636C225.698 230.163 234.948 223.636 244.448 225.636C253.948 227.636 261.448 238.636 257.948 251.136C254.448 263.636 242.351 277.386 219.448 272.136C196.545 266.886 179.906 231.316 205.948 208.636C231.99 185.956 273.448 211.886 272.448 243.636C271.448 275.386 239.393 298.136 203.948 285.136C168.503 272.136 161.893 225.166 188.448 192.636C194.435 185.302 246.004 131.08 251.226 146.608C256.448 162.136 214.028 180.109 200.962 177.455C167.256 170.609 193.948 117.636 202.448 124.636C210.948 131.636 181.818 154.087 171.448 160.136" stroke="#369CA3" stroke-width="10" stroke-linecap="round"/>
<path d="M118.448 247.136C141.72 251.136 167.448 268.136 157.948 274.136C148.448 280.136 138.448 232.636 128.948 236.636C119.448 240.636 148.053 263.136 167.448 252.636" stroke="#369CA3" stroke-width="10" stroke-linecap="round"/>
<path d="M62.4479 234.637C56.9479 232.636 56.5034 242.249 62.7257 242.692C68.9479 243.136 75.9481 233.136 67.4481 224.636C58.9481 216.136 36.9481 222.192 39.9481 244.636C42.9481 267.079 82.4481 271.136 90.9479 240.636C99.4478 210.136 47.4479 185.136 25.448 217.136C3.4481 249.136 27.9485 286.136 58.4483 289.136C88.9481 292.136 111.448 273.636 111.948 240.636C112.448 207.636 64.4479 158.136 31.9479 174.636C-0.552124 191.136 145.948 220.136 188.698 182.137" stroke="#369CA3" stroke-width="10" stroke-linecap="round"/>
<path d="M111.229 134.924C113.478 141.851 116.429 130.92 111.52 130.92C108.489 130.92 108.456 134.887 108.796 137.136C109.256 140.179 111.25 142.759 114.164 141.516C117.523 140.082 118.15 129.907 115.209 127.745C108.853 123.074 105.815 129.291 104.393 134.782C101.75 144.991 100.191 186.627 105.398 189.337C110.605 192.046 112.767 143.079 108.796 144.636C104.825 146.193 106.343 184.787 112.495 189.337C118.647 193.886 150.132 195.342 154.836 188.063C159.541 180.783 156.284 144.124 146.07 143.072C135.857 142.021 116.295 142.355 116.838 146.136C117.381 149.917 143.295 145.136 147.387 140.848C150.891 137.178 152.665 127.745 147.156 127.462C141.647 127.179 124.562 122.513 116.838 124.733" stroke="#369CA3" stroke-width="10" stroke-linecap="round"/>
</g>
<path d="M245.543 240.298C242.549 237.306 246.542 232.32 251.033 233.816C255.525 235.311 257.022 246.281 245.543 247.777C236.005 248.359 230.82 239.772 231.569 231.322C232.318 222.873 241.551 216.363 251.033 218.358C260.516 220.352 268.002 231.322 264.509 243.788C261.015 256.254 248.94 269.967 226.079 264.731C203.218 259.495 186.609 224.023 212.604 201.404C238.598 178.786 279.98 204.646 278.982 236.309C277.984 267.972 245.987 290.66 210.607 277.695C175.227 264.731 168.629 217.89 195.136 185.448C201.111 178.135 252.586 124.06 257.799 139.546C263.012 155.032 220.669 172.956 207.627 170.309C173.982 163.481 200.626 110.653 209.11 117.634C217.595 124.615 188.517 147.004 178.167 153.037" stroke="#369CA3" stroke-linecap="round"/>
<path d="M125.263 239.799C148.493 243.788 174.174 260.742 164.691 266.725C155.208 272.709 145.227 225.339 135.744 229.328C126.261 233.317 154.814 255.755 174.174 245.284" stroke="#369CA3" stroke-linecap="round"/>
<path d="M69.365 227.334C63.8751 225.339 63.4314 234.925 69.6423 235.368C75.8532 235.81 82.8406 225.837 74.3561 217.361C65.8716 208.884 43.9117 214.924 46.9062 237.306C49.9008 259.688 89.3287 263.733 97.8131 233.317C106.297 202.901 54.3924 177.969 32.4326 209.881C10.4728 241.794 34.9285 278.693 65.3727 281.685C95.8169 284.676 118.276 266.227 118.775 233.317C119.274 200.408 71.3614 151.042 38.9206 167.498C6.47988 183.953 152.713 212.873 195.385 174.978" stroke="#369CA3" stroke-linecap="round"/>
<path d="M118.057 127.894C120.302 134.803 123.248 123.901 118.348 123.901C115.322 123.901 115.289 127.857 115.629 130.1C116.088 133.135 118.078 135.708 120.987 134.468C124.339 133.039 124.966 122.891 122.03 120.736C115.686 116.077 112.653 122.277 111.234 127.753C108.595 137.934 107.039 179.456 112.237 182.158C117.435 184.861 119.592 136.027 115.629 137.58C111.665 139.133 113.18 177.621 119.321 182.158C125.462 186.696 156.889 188.147 161.585 180.888C166.281 173.629 163.03 137.069 152.835 136.021C142.64 134.972 123.114 135.305 123.656 139.076C124.198 142.847 150.065 138.078 154.15 133.803C157.647 130.142 159.418 120.736 153.919 120.453C148.42 120.171 131.366 115.517 123.656 117.731" stroke="#369CA3" stroke-linecap="round"/>
<path opacity="0.15" d="M107.296 142.935C107.141 139.836 109.818 137.346 112.898 137.723L152.376 142.565C154.497 142.825 156.218 144.404 156.66 146.495L163.51 178.941C164.231 182.356 161.318 185.441 157.867 184.917L113.057 178.113C110.707 177.756 108.932 175.794 108.814 173.419L107.296 142.935Z" fill="#369CA3"/>
<rect opacity="0.15" x="114" y="118" width="46" height="17" rx="5" fill="#369CA3"/>
<path opacity="0.15" d="M75.234 173.365C61.262 161.35 23.9908 163.108 30.9893 173.365C34.1863 178.051 41.4683 175.794 43.4089 181.034C45.3494 186.275 45.7375 202.125 45.7375 202.125C45.7375 202.125 30.9893 219.764 24.3914 226.666C17.7935 233.569 36.4229 253.892 43.4089 258.11C50.3949 262.328 84.3842 273.529 100.073 258.11C114.219 244.208 105.119 207.877 105.119 207.877C105.119 207.877 89.206 185.38 75.234 173.365Z" fill="#369CA3"/>
<path opacity="0.15" d="M189.547 214.63C189.547 207.412 200.957 191.223 214.878 187.361C226.226 184.212 234.289 186.765 244.563 192.574C256.179 199.14 260.791 212.224 265.937 219.442C271.082 226.66 271.102 258.209 255.25 271.173C236.306 286.667 203.796 267.163 193.9 259.945C184.005 252.727 189.547 221.848 189.547 214.63Z" fill="#369CA3"/>
<path d="M45 289.5C116.5 267.5 258.5 297.5 268.5 283.5C278.5 269.5 94.5 311.5 96.5 301C98.5 290.5 227.5 296 246 301" stroke="#369CA3" stroke-linecap="round"/>
<path opacity="0.1" d="M41 293.851C112.534 271.944 254.602 301.817 264.606 287.876C274.611 273.936 90.5236 315.758 92.5245 305.302C94.5255 294.847 223.587 300.323 242.096 305.302" stroke="#369CA3" stroke-width="10" stroke-linecap="round"/>
<path d="M12 137C12 134.667 13.3 129.8 18.5 129C25 128 27.5 134.5 35.5 134M9 148.5C11.5 146.833 17.7 144 22.5 146C28.5 148.5 26 150 35.5 146" stroke="#369CA3" stroke-linecap="round"/>
<path opacity="0.1" d="M8.0566 143.268C8.0566 140.888 9.38113 135.923 14.6792 135.107C21.3019 134.087 23.8491 140.718 32 140.208M5 155C7.54717 153.3 13.8642 150.409 18.7547 152.45C24.8679 155 22.3208 156.53 32 152.45" stroke="#369CA3" stroke-width="10" stroke-linecap="round"/>
<path opacity="0.15" d="M245.186 57.8639C220.739 58.6009 205.698 56.5827 183.723 45.9105C173.882 41.1315 161.552 41.6511 160.118 30.8581C158.603 19.4627 172.028 17.0918 181.496 10.4932C187.237 6.49214 191.888 2.96697 197.085 1.63881C202.281 0.310663 207.2 0.683078 213.564 1.63881C225.949 3.49899 230.244 17.8656 242.514 15.363C251.271 13.5768 252.181 4.08963 260.774 1.63881C273.268 -1.92419 285.236 0.0167076 292.842 10.4932C299.967 20.307 299.467 31.3296 292.842 41.4833C288.143 48.6851 282.529 50.5226 274.581 53.8794C263.918 58.383 256.766 57.5147 245.186 57.8639Z" fill="#55ACEE"/>
<path opacity="0.15" d="M28.4473 31.2445C23.4809 33.7627 19.8558 42.5198 20.0044 50.8859C20.1238 57.6065 20.9592 62.5948 25.9641 67.0019C32.847 73.0627 40.2767 68.2694 49.3063 67.0019C61.0318 65.3559 75.1316 69.52 78.1115 57.433C81.0913 45.346 76.2731 38.5036 68.1787 31.2445C56.5557 20.8212 33.4137 28.7264 28.4473 31.2445Z" fill="#55ACEE"/>
</svg>
