<?xml version="1.0" encoding="UTF-8" standalone="no"?>
<svg
   width="30"
   height="30"
   viewBox="0 0 30 30"
   fill="none"
   version="1.1"
   id="svg145"
   sodipodi:docname="trash.svg"
   inkscape:version="1.2.1 (9c6d41e4, 2022-07-14)"
   xmlns:inkscape="http://www.inkscape.org/namespaces/inkscape"
   xmlns:sodipodi="http://sodipodi.sourceforge.net/DTD/sodipodi-0.dtd"
   xmlns="http://www.w3.org/2000/svg"
   xmlns:svg="http://www.w3.org/2000/svg">
  <defs
     id="defs149" />
  <sodipodi:namedview
     id="namedview147"
     pagecolor="#ffffff"
     bordercolor="#000000"
     borderopacity="0.25"
     inkscape:showpageshadow="2"
     inkscape:pageopacity="0.0"
     inkscape:pagecheckerboard="0"
     inkscape:deskcolor="#d1d1d1"
     showgrid="false"
     inkscape:zoom="17.292442"
     inkscape:cx="16.799247"
     inkscape:cy="15.613758"
     inkscape:window-width="953"
     inkscape:window-height="782"
     inkscape:window-x="421"
     inkscape:window-y="1252"
     inkscape:window-maximized="0"
     inkscape:current-layer="svg145"
     showguides="true">
    <sodipodi:guide
       position="16.596846,35.840702"
       orientation="0,-1"
       id="guide204"
       inkscape:locked="false" />
  </sodipodi:namedview>
  <g
     id="Vector"
     style="opacity:0.87" />
  <g
     id="Vector_2"
     style="opacity:0.87" />
  <g
     id="Vector_3"
     style="opacity:0.87" />
  <g
     id="Vector_4"
     style="opacity:0.87">
    <path
       id="path227"
       style="color:#000000;fill:#000000;stroke-linecap:round;stroke-linejoin:round;-inkscape-stroke:none"
       d="m 17.5,12.75 a 1,1 0 0 0 -1,1 v 7.5 a 1,1 0 0 0 1,1 1,1 0 0 0 1,-1 v -7.5 a 1,1 0 0 0 -1,-1 z m 0,1 v 7.5 m -5,-8.5 a 1,1 0 0 0 -1,1 v 7.5 a 1,1 0 0 0 1,1 1,1 0 0 0 1,-1 v -7.5 a 1,1 0 0 0 -1,-1 z m 0,1 v 7.5 M 12.5,1.5 C 11.572154,1.5 10.681535,1.8693304 10.025391,2.5253906 9.3693468,3.1814904 9,4.0721202 9,5 V 6.5 H 6.25 a 1.0001,1.0001 0 0 0 -1,1 V 25 c 0,0.927846 0.3693304,1.818465 1.0253906,2.474609 C 6.9314904,28.130653 7.8221202,28.5 8.75,28.5 h 12.5 c 0.927856,0 1.818474,-0.369395 2.474609,-1.025391 C 24.380605,26.818474 24.75,25.927856 24.75,25 V 7.5 a 1.0001,1.0001 0 0 0 -1,-1 H 21 V 5 C 21,4.0721202 20.630653,3.1814904 19.974609,2.5253906 19.318465,1.8693304 18.427846,1.5 17.5,1.5 Z m 0,2 h 5 c 0.398153,0 0.778892,0.1578343 1.060547,0.4394531 C 18.842102,4.2210324 19,4.6018011 19,5 V 6.5 H 11 V 5 C 11,4.6018011 11.157898,4.2210324 11.439453,3.9394531 11.721108,3.6578343 12.101847,3.5 12.5,3.5 Z m -5.25,5 H 10 20 22.75 V 25 c 0,0.398143 -0.15785,0.778884 -0.439453,1.060547 C 22.028884,26.34215 21.648143,26.5 21.25,26.5 H 8.75 C 8.3518011,26.5 7.9710324,26.342102 7.6894531,26.060547 7.4078343,25.778892 7.25,25.398153 7.25,25 Z M 10,7.5 V 5 C 10,4.33696 10.2634,3.70107 10.7322,3.23223 11.2011,2.76339 11.837,2.5 12.5,2.5 h 5 c 0.663,0 1.2989,0.26339 1.7678,0.73223 C 19.7366,3.70107 20,4.33696 20,5 v 2.5 m 3.75,0 V 25 c 0,0.663 -0.2634,1.2989 -0.7322,1.7678 C 22.5489,27.2366 21.913,27.5 21.25,27.5 H 8.75 C 8.08696,27.5 7.45107,27.2366 6.98223,26.7678 6.51339,26.2989 6.25,25.663 6.25,25 V 7.5 Z m -20,-1 a 1,1 0 0 0 -1,1 1,1 0 0 0 1,1 h 2.5 20 a 1,1 0 0 0 1,-1 1,1 0 0 0 -1,-1 h -20 z m 0,1 h 2.5 20" />
  </g>
</svg>
