<svg width="17" height="14" viewBox="0 0 17 14" fill="none" xmlns="http://www.w3.org/2000/svg">
<g id="Frame" clip-path="url(#clip0_1804_1646)">
<g id="XMLID 826">
<path id="XMLID 827" d="M16.1374 1.96199C15.8861 2.07347 15.6276 2.16756 15.3636 2.24395C15.6762 1.8904 15.9146 1.4744 16.06 1.01918C16.0927 0.917137 16.0589 0.805447 15.975 0.738711C15.8912 0.671924 15.7748 0.663924 15.6826 0.718582C15.1218 1.05118 14.5168 1.2902 13.8824 1.42996C13.2434 0.80555 12.3755 0.450195 11.4783 0.450195C9.58434 0.450195 8.04349 1.991 8.04349 3.88488C8.04349 4.03404 8.05293 4.18238 8.07162 4.32865C5.72143 4.1223 3.5365 2.96715 2.03611 1.12669C1.98264 1.06109 1.90027 1.02573 1.81593 1.03249C1.73155 1.0391 1.65573 1.08669 1.61309 1.15982C1.30878 1.68199 1.14791 2.2792 1.14791 2.88684C1.14791 3.71445 1.44339 4.49969 1.96535 5.11327C1.80664 5.0583 1.65263 4.9896 1.50564 4.908C1.42672 4.86408 1.33041 4.86475 1.25201 4.90971C1.17356 4.95466 1.12437 5.03734 1.12231 5.12772C1.12195 5.14294 1.12195 5.15817 1.12195 5.1736C1.12195 6.40896 1.78682 7.52116 2.80334 8.12736C2.71601 8.11863 2.62873 8.10599 2.54202 8.08942C2.45263 8.07234 2.36071 8.10367 2.30042 8.17185C2.24004 8.23998 2.22006 8.33494 2.24788 8.42165C2.62414 9.59636 3.59286 10.4604 4.76396 10.7238C3.79265 11.3322 2.68189 11.6509 1.51586 11.6509C1.27255 11.6509 1.02786 11.6366 0.788372 11.6082C0.669404 11.5941 0.55565 11.6643 0.515134 11.7775C0.474617 11.8907 0.517559 12.0169 0.618772 12.0817C2.11673 13.0422 3.84881 13.5499 5.62764 13.5499C9.12462 13.5499 11.3122 11.9008 12.5316 10.5174C14.0521 8.79249 14.9242 6.50929 14.9242 4.25334C14.9242 4.1591 14.9227 4.06392 14.9198 3.96906C15.5197 3.51709 16.0362 2.97009 16.4565 2.3414C16.5203 2.24591 16.5134 2.11972 16.4395 2.03182C16.3656 1.94387 16.2425 1.91543 16.1374 1.96199Z" fill="#55ACEE"/>
</g>
</g>
<defs>
<clipPath id="clip0_1804_1646">
<rect width="16" height="14" fill="white" transform="translate(0.5)"/>
</clipPath>
</defs>
</svg>
