<svg width="20" height="20" viewBox="0 0 20 20" fill="none" xmlns="http://www.w3.org/2000/svg">
<path d="M16.6667 5.83337H3.33335C2.41288 5.83337 1.66669 6.57957 1.66669 7.50004V15.8334C1.66669 16.7538 2.41288 17.5 3.33335 17.5H16.6667C17.5872 17.5 18.3334 16.7538 18.3334 15.8334V7.50004C18.3334 6.57957 17.5872 5.83337 16.6667 5.83337Z" stroke="#80869A" stroke-width="1.5" stroke-linecap="round" stroke-linejoin="round"/>
<path d="M13.3334 17.5V4.16667C13.3334 3.72464 13.1578 3.30072 12.8452 2.98816C12.5326 2.67559 12.1087 2.5 11.6667 2.5H8.33335C7.89133 2.5 7.4674 2.67559 7.15484 2.98816C6.84228 3.30072 6.66669 3.72464 6.66669 4.16667V17.5" stroke="#80869A" stroke-width="1.5" stroke-linecap="round" stroke-linejoin="round"/>
</svg>
