<svg width="41" height="41" viewBox="0 0 41 41" fill="none" xmlns="http://www.w3.org/2000/svg">
<path d="M40.5 25.4951C40.5 23.7748 39.3947 22.3088 37.8575 21.7671V19.8121C38.1047 19.7209 38.3427 19.6006 38.5664 19.4505C39.456 18.8527 39.9662 17.9091 39.9662 16.8608C39.9662 16.2053 39.7636 15.5848 39.387 15.063C39.5775 14.6116 39.6348 14.1105 39.5424 13.6168C38.8734 10.0389 36.576 6.76373 33.0735 4.39404C29.5851 2.03412 25.1198 0.734375 20.5 0.734375C15.8802 0.734375 11.4149 2.03412 7.92645 4.39404C4.42395 6.76343 2.12659 10.0389 1.45764 13.6168C1.34167 14.236 1.461 14.8665 1.78387 15.3959C1.54065 15.8421 1.414 16.3389 1.414 16.8608C1.414 17.9091 1.92426 18.8533 2.81415 19.4508C2.92035 19.5222 3.03052 19.586 3.14252 19.6443V21.7671C1.60535 22.3088 0.5 23.7748 0.5 25.4951V25.6538C0.5 26.7933 0.985535 27.8212 1.75977 28.5432C1.53394 28.9778 1.414 29.4612 1.414 29.9589C1.414 30.7411 1.69843 31.4647 2.21204 32.0302V34.8494C2.21204 37.8611 4.66229 40.3117 7.67438 40.3117H33.3256C36.3377 40.3117 38.788 37.8611 38.788 34.8494V32.3845C39.5396 31.7854 39.9662 30.916 39.9662 29.9586C39.9662 29.3583 39.7972 28.7901 39.4813 28.2988C40.114 27.5981 40.5 26.6703 40.5 25.6538V25.4951ZM38.9375 25.4951V25.6538C38.9375 26.4604 38.5353 27.1745 37.9213 27.6075C37.5212 27.8895 37.0375 28.0433 36.548 28.0433H24.4334L29.4154 23.1056H36.5477C37.8654 23.1056 38.9375 24.1777 38.9375 25.4951ZM12.3411 23.1056L12.465 23.2298L13.2664 24.0309L11.5889 25.7087L8.98572 23.1056H12.3411ZM19.7175 28.2722L14.9244 23.4794C14.9244 23.4791 14.9241 23.4788 14.9238 23.4785L14.5509 23.1056H27.1925L21.9713 28.2692C21.9709 28.2695 21.9706 28.2698 21.9703 28.2704C21.9697 28.271 21.9688 28.2716 21.9682 28.2722L20.8427 29.3977L19.7175 28.2722ZM2.99329 13.9036C3.58502 10.7396 5.64801 7.82178 8.802 5.68799C12.0347 3.5011 16.1891 2.29688 20.5 2.29688C24.8109 2.29688 28.9653 3.5011 32.198 5.68799C35.352 7.82178 37.4147 10.7396 38.0067 13.9036C38.1163 14.4905 37.6475 15.0511 37.0518 15.0511H3.94818C3.35156 15.0511 2.88373 14.4905 2.99329 13.9036ZM3.03418 16.4436C3.3244 16.5559 3.63721 16.6136 3.94818 16.6136H37.0518C37.483 16.6136 37.9167 16.5019 38.2927 16.2904C38.3662 16.4711 38.4037 16.6655 38.4037 16.8605C38.4037 17.3796 38.1456 17.8508 37.6951 18.1532C37.2346 18.4626 36.6481 18.5368 36.1213 18.3702C35.861 18.2878 35.6154 18.1816 35.3468 18.1242C35.0563 18.062 34.759 18.0345 34.4621 18.0345C33.0665 18.0345 32.3176 18.563 31.7161 18.9875C31.1882 19.3605 30.7713 19.655 29.8716 19.655C28.972 19.655 28.5551 19.3605 28.0272 18.9879C27.4257 18.5627 26.6771 18.0345 25.2812 18.0345C23.8856 18.0345 23.137 18.563 22.5355 18.9879C22.0076 19.3605 21.5907 19.655 20.691 19.655C19.7914 19.655 19.3742 19.3605 18.8463 18.9875C18.2448 18.5627 17.4962 18.0345 16.1006 18.0345C14.705 18.0345 13.9561 18.563 13.3546 18.9875C12.8267 19.3605 12.4095 19.655 11.5101 19.655C10.6102 19.655 10.1933 19.3605 9.66504 18.9875C9.06354 18.5627 8.31494 18.0345 6.91907 18.0345C6.367 18.0345 5.86926 18.1282 5.39716 18.3207C4.8396 18.5484 4.18713 18.4907 3.68542 18.1535C3.23499 17.8511 2.97681 17.3799 2.97681 16.8608C2.9765 16.717 2.99603 16.5773 3.03418 16.4436ZM4.86035 20.0169C5.2702 19.9971 5.65472 19.8936 6.03619 19.7484C6.41675 19.6031 6.83179 19.5744 7.23492 19.6104C7.92462 19.6718 8.30182 19.9382 8.76385 20.2641C9.36536 20.6889 10.114 21.2175 11.5098 21.2175C12.9054 21.2175 13.654 20.6889 14.2555 20.2641C14.7834 19.8915 15.2006 19.597 16.1003 19.597C16.9999 19.597 17.4168 19.8915 17.9448 20.2641C18.5463 20.6889 19.2952 21.2175 20.6907 21.2175C22.0863 21.2175 22.8349 20.6889 23.4364 20.2641C23.9644 19.8915 24.3815 19.597 25.2809 19.597C26.1805 19.597 26.5977 19.8915 27.1257 20.2641C27.7272 20.6889 28.4758 21.2175 29.8713 21.2175C31.2669 21.2175 32.0155 20.6889 32.617 20.2641C33.1453 19.8915 33.5621 19.597 34.4618 19.597C34.781 19.597 35.0944 19.6501 35.392 19.767C35.6822 19.8811 35.9843 19.9632 36.2947 19.9995V21.5434H29.0941C29.0938 21.5434 29.0938 21.5434 29.0934 21.5434H29.0931H12.6671C12.6664 21.5434 12.6655 21.5434 12.6649 21.5434C12.664 21.5434 12.6631 21.5434 12.6625 21.5434H4.70502V20.0212C4.7569 20.0209 4.80847 20.0193 4.86035 20.0169ZM2.0625 25.4951C2.0625 24.1777 3.13458 23.1056 4.45203 23.1056H6.77625L11.0365 27.3661C11.183 27.5126 11.3817 27.5947 11.5889 27.5947C11.7961 27.5947 11.9948 27.5126 12.1412 27.3661L14.3715 25.1359L17.2789 28.0433H4.45203C4.03912 28.0433 3.62866 27.9341 3.27039 27.7293C2.54956 27.3176 2.0625 26.5419 2.0625 25.6538V25.4951ZM3.10559 29.3693C3.53558 29.5253 3.99457 29.6058 4.45203 29.6058H18.8414L20.2903 31.0548C20.59 31.3548 21.092 31.3554 21.3926 31.0573L22.8572 29.6058H36.5477C36.9883 29.6058 37.4284 29.5311 37.8447 29.387C37.9319 29.3568 38.0211 29.3263 38.1031 29.2842C38.1297 29.2704 38.1682 29.2399 38.1996 29.2421C38.2429 29.2451 38.2542 29.3004 38.2698 29.3351C38.3543 29.5216 38.3995 29.7258 38.4031 29.9305C38.4163 30.6675 37.8856 31.2843 37.1925 31.4851C36.7955 31.6005 36.3655 31.5748 35.9828 31.4186C35.5116 31.226 35.0139 31.1323 34.4618 31.1323C33.0662 31.1323 32.3176 31.6609 31.7161 32.0857C31.1879 32.4586 30.771 32.7531 29.8713 32.7531C28.972 32.7531 28.5548 32.4586 28.0269 32.0857C27.4254 31.6609 26.6768 31.1323 25.2812 31.1323C23.8856 31.1323 23.137 31.6609 22.5352 32.0857C22.0073 32.4586 21.5904 32.7531 20.6907 32.7531C19.7911 32.7531 19.3742 32.4586 18.8459 32.0857C18.2444 31.6609 17.4958 31.1323 16.1003 31.1323C14.7047 31.1323 13.9561 31.6609 13.3543 32.0857C12.8264 32.4586 12.4095 32.7531 11.5098 32.7531C10.6099 32.7531 10.193 32.4583 9.66504 32.0857C9.06323 31.6609 8.31464 31.1323 6.91876 31.1323C6.3667 31.1323 5.86896 31.226 5.39716 31.4189C4.88721 31.627 4.29272 31.5995 3.81146 31.3286C3.38574 31.089 3.06866 30.6782 2.9942 30.1902C2.97192 30.0459 2.9707 29.8982 2.98993 29.7532C2.99542 29.7111 3.06714 29.3553 3.10559 29.3693ZM37.2255 34.8494C37.2255 36.9996 35.4759 38.7492 33.3256 38.7492H7.67438C5.52411 38.7492 3.77454 36.9996 3.77454 34.8494V32.9963C4.41602 33.1782 5.10846 33.1654 5.76825 32.946C5.78168 32.9414 5.7951 32.9368 5.80823 32.9326C5.86835 32.9115 5.92847 32.8898 5.98767 32.8654C6.26843 32.7507 6.573 32.6951 6.91876 32.6951C7.81873 32.6951 8.2356 32.9893 8.76355 33.3622C9.36536 33.787 10.114 34.3156 11.5098 34.3156C12.9054 34.3156 13.654 33.787 14.2555 33.3622C14.7834 32.9893 15.2006 32.6951 16.1 32.6951C16.9996 32.6951 17.4168 32.9893 17.9448 33.3622C18.5463 33.787 19.2949 34.3156 20.6907 34.3156C22.0863 34.3156 22.8349 33.787 23.4364 33.3622C23.9644 32.9893 24.3815 32.6951 25.2809 32.6951C26.1805 32.6951 26.5977 32.9893 27.1254 33.3622C27.7269 33.787 28.4758 34.3156 29.8713 34.3156C31.2669 34.3156 32.0155 33.787 32.617 33.3622C33.145 32.9893 33.5621 32.6951 34.4618 32.6951C34.6946 32.6951 34.9281 32.7211 35.153 32.7836C35.3669 32.8431 35.569 32.9371 35.7829 32.9976C36.2474 33.1285 36.7488 33.1562 37.2252 33.0787V34.8494H37.2255Z" fill="#369CA3"/>
</svg>
