<?xml version="1.0" encoding="UTF-8" standalone="no"?>
<svg
   width="14.833127"
   height="13.499953"
   viewBox="0 0 14.833127 13.499953"
   fill="none"
   version="1.1"
   id="svg11"
   xmlns="http://www.w3.org/2000/svg"
   xmlns:svg="http://www.w3.org/2000/svg">
  <path
     id="path2"
     style="color:#000000;fill:#80869a;stroke-linecap:round;stroke-linejoin:round;-inkscape-stroke:none"
     d="M 0.75,0 A 0.750075,0.750075 0 0 0 0.17773438,1.234375 L 5.3339844,7.3320312 v 4.0839848 a 0.750075,0.750075 0 0 0 0.4140625,0.671875 l 2.6660156,1.332031 A 0.750075,0.750075 0 0 0 9.5,12.75 V 7.3320312 L 14.65625,1.234375 A 0.750075,0.750075 0 0 0 14.083984,0 Z M 2.3671875,1.5 H 12.466797 L 8.1777344,6.5722656 A 0.750075,0.750075 0 0 0 8,7.0566406 V 11.537109 L 6.8339844,10.953125 V 7.0566406 A 0.750075,0.750075 0 0 0 6.65625,6.5722656 Z" />
  <defs
     id="defs9" />
</svg>
