<svg width="18" height="24" viewBox="0 0 18 24" fill="none" xmlns="http://www.w3.org/2000/svg">
<path d="M17.7745 20.7285L16.498 6.6825C16.462 6.2955 16.138 6 15.7495 6H13.4995V4.5C13.4995 3.294 13.033 2.1615 12.1855 1.314C11.338 0.4665 10.2055 0 8.99946 0C6.51846 0 4.49946 2.019 4.49946 4.5V6H2.24946C1.86096 6 1.53696 6.2955 1.50246 6.6825L0.225957 20.7285C0.149457 21.5655 0.431457 22.4025 0.998457 23.0235C1.56546 23.6445 2.37246 24 3.21396 24H14.7865C15.628 24 16.435 23.6445 17.002 23.0235C17.569 22.4025 17.8495 21.5655 17.7745 20.7285ZM5.99946 4.5C5.99946 2.8455 7.34496 1.5 8.99946 1.5C9.80496 1.5 10.5595 1.8105 11.125 2.3745C11.6905 2.9385 11.9995 3.6945 11.9995 4.5V6H5.99946V4.5ZM15.8935 22.0125C15.6055 22.326 15.2125 22.5 14.785 22.5H3.21396C2.78796 22.5 2.39346 22.326 2.10696 22.011C1.81896 21.696 1.68246 21.2895 1.72146 20.8635L2.93496 7.5H4.49946V9.75C4.49946 10.164 4.83546 10.5 5.24946 10.5C5.66346 10.5 5.99946 10.164 5.99946 9.75V7.5H11.9995V9.75C11.9995 10.164 12.3355 10.5 12.7495 10.5C13.1635 10.5 13.4995 10.164 13.4995 9.75V7.5H15.064L16.279 20.865C16.318 21.2895 16.1815 21.6975 15.8935 22.0125Z" fill="#80869A"/>
</svg>
