<svg width="41" height="41" viewBox="0 0 41 41" fill="none" xmlns="http://www.w3.org/2000/svg">
<g clip-path="url(#clip0_113_3767)">
<path d="M40.2676 0.725393C40.0541 0.514768 39.7386 0.444456 39.4563 0.545549L7.00692 12.1156C5.87958 11.4262 4.44966 11.2648 3.13818 11.8079C0.961228 12.7097 -0.0763484 15.2144 0.825369 17.3915C2.95185 22.525 6.02208 27.12 9.95105 31.049C13.88 34.978 18.475 38.0483 23.6085 40.1747C24.1417 40.3955 24.6942 40.5 25.2383 40.5C26.916 40.4999 28.5113 39.5058 29.1921 37.8618C29.6502 36.7557 29.607 35.5653 29.1688 34.5431L40.4579 1.53422C40.5549 1.25047 40.481 0.936095 40.2676 0.725393ZM11.9202 12.0226L15.3592 10.7965C15.763 11.2266 15.9598 11.8188 15.881 12.4177C15.8114 12.9451 15.5408 13.4139 15.1189 13.7377C14.6969 14.0615 14.1744 14.2015 13.6467 14.1322C13.1194 14.0627 12.6507 13.7922 12.3268 13.3701C12.0285 12.9813 11.8865 12.5069 11.9202 12.0226ZM27.7485 37.2638C27.1765 38.6449 25.5873 39.3031 24.2065 38.7309C14.2034 34.5875 6.41255 26.7966 2.26904 16.7935C1.99193 16.1245 1.99193 15.3877 2.26904 14.7186C2.54615 14.0497 3.06716 13.5286 3.73614 13.2515C4.40513 12.9744 5.142 12.9744 5.81098 13.2515C6.47997 13.5286 7.00098 14.0497 7.27809 14.7186C9.0516 19.0004 11.6125 22.8331 14.8897 26.1103C18.1669 29.3874 21.9995 31.9483 26.2813 33.7219C27.6624 34.2938 28.3206 35.8828 27.7485 37.2638ZM34.6894 13.5726C34.6187 13.5708 34.5479 13.5668 34.4773 13.5576C33.95 13.4881 33.4812 13.2175 33.1575 12.7955C32.8337 12.3736 32.6936 11.8507 32.763 11.3234C32.9063 10.2348 33.9083 9.46592 34.9973 9.60905C35.3332 9.65327 35.6486 9.78358 35.9176 9.98178L34.6894 13.5726ZM36.4369 8.46272C36.0562 8.25546 35.638 8.11741 35.2012 8.05991C33.2581 7.80343 31.4696 9.17663 31.2138 11.1195C31.0899 12.0606 31.3399 12.9937 31.9178 13.7468C32.4744 14.4722 33.2713 14.9461 34.1702 15.0906L32.6174 19.6311L30.8316 18.2608C30.4894 17.9983 29.9988 18.0627 29.7362 18.405C29.4736 18.7474 29.5382 19.2378 29.8805 19.5004L32.084 21.1912L28.0454 33.0002C27.7066 32.7056 27.3166 32.4592 26.8796 32.2782C18.5999 28.8486 12.1515 22.4002 8.72207 14.1207C8.60285 13.8327 8.45473 13.5654 8.28387 13.3191L10.376 12.5732C10.449 13.2035 10.691 13.8047 11.0873 14.3212C11.6651 15.0743 12.5018 15.5573 13.4428 15.6811C13.6005 15.7019 13.7577 15.7122 13.9141 15.7122C14.6913 15.7122 15.4432 15.4583 16.0701 14.9773C16.8233 14.3994 17.3062 13.5629 17.4302 12.6216C17.5414 11.7767 17.3442 10.9398 16.9014 10.2465L26.6129 6.7839L26.9809 7.67249C27.1056 7.97335 27.3965 8.15499 27.7031 8.15499C27.8027 8.15499 27.9039 8.13577 28.0017 8.0953C28.4003 7.93022 28.5896 7.47311 28.4245 7.07452L28.0866 6.25851L38.4552 2.56148L36.4369 8.46272Z" fill="#80869A"/>
<path d="M8.93748 21.4591C8.93513 21.4554 8.92865 21.4455 8.92615 21.4419C8.68693 21.0831 8.20279 20.9867 7.84381 21.2257C7.48545 21.4643 7.38826 21.9486 7.62545 22.3076C7.77506 22.5374 8.02537 22.6628 8.28107 22.6628C8.42576 22.6628 8.57209 22.6227 8.70271 22.5387C9.06568 22.3053 9.17076 21.822 8.93748 21.4591Z" fill="#80869A"/>
<path d="M7.74924 19.5181C6.98791 18.1832 6.30354 16.7862 5.71518 15.366C5.5501 14.9672 5.09284 14.7782 4.69448 14.9432C4.29581 15.1083 4.10659 15.5653 4.27174 15.9639C4.88502 17.4445 5.59846 18.9007 6.39205 20.2921C6.53619 20.5448 6.79994 20.6865 7.07135 20.6865C7.2026 20.6865 7.33564 20.6534 7.45767 20.5838C7.83244 20.3699 7.96306 19.8928 7.74924 19.5181Z" fill="#80869A"/>
<path d="M24.9478 10.499C24.793 10.4786 24.6357 10.4683 24.4804 10.4683C22.7056 10.4683 21.1924 11.7968 20.9605 13.5585C20.7047 15.5013 22.0771 17.29 24.0199 17.5458C24.1748 17.5663 24.332 17.5766 24.4874 17.5766C26.262 17.5766 27.7753 16.2481 28.0073 14.4862C28.263 12.5435 26.8906 10.7548 24.9478 10.499ZM26.4582 14.2823C26.3282 15.2696 25.4809 16.014 24.4874 16.014C24.4 16.014 24.3113 16.0083 24.2239 15.9967C23.1352 15.8533 22.3663 14.8511 22.5096 13.7624C22.6396 12.7752 23.4868 12.0308 24.4804 12.0308C24.5677 12.0308 24.6564 12.0366 24.7438 12.0482C25.8324 12.1916 26.6015 13.1938 26.4582 14.2823Z" fill="#80869A"/>
<path d="M24.7446 20.2168C24.5897 20.1963 24.4325 20.186 24.2772 20.186C22.5024 20.186 20.9891 21.5146 20.7572 23.2763C20.6333 24.2175 20.8833 25.1505 21.4611 25.9037C22.039 26.6568 22.8755 27.1398 23.8167 27.2638C23.9715 27.2842 24.1286 27.2944 24.2839 27.2944C26.0586 27.2944 27.572 25.9659 27.8039 24.204C28.0598 22.2613 26.6873 20.4728 24.7446 20.2168ZM26.255 24.0002C26.125 24.9874 25.2776 25.7319 24.284 25.7319C24.1968 25.7319 24.1081 25.726 24.0207 25.7146C23.4934 25.645 23.0247 25.3744 22.7008 24.9524C22.377 24.5305 22.2369 24.0077 22.3064 23.4803C22.4364 22.4931 23.2836 21.7486 24.2772 21.7486C24.3645 21.7486 24.4532 21.7544 24.5406 21.766C25.6291 21.9093 26.3982 22.9116 26.255 24.0002Z" fill="#80869A"/>
<path d="M19.5918 16.98L17.1905 16.6639C16.763 16.6071 16.3703 16.9086 16.314 17.3363C16.2576 17.7642 16.5587 18.1566 16.9865 18.2129L19.3877 18.5291C19.4223 18.5337 19.4567 18.5359 19.4907 18.5359C19.8767 18.5359 20.2125 18.2497 20.2642 17.8566C20.3207 17.4288 20.0196 17.0364 19.5918 16.98Z" fill="#80869A"/>
<path d="M18.3742 22.7455L18.1622 21.1342C18.1058 20.7064 17.7135 20.4052 17.2857 20.4616C16.8579 20.518 16.5568 20.9103 16.6131 21.3381L16.8252 22.9494C16.8769 23.3426 17.2126 23.6287 17.5987 23.6287C17.6327 23.6287 17.6671 23.6265 17.7016 23.6219C18.1294 23.5656 18.4305 23.1733 18.3742 22.7455Z" fill="#80869A"/>
</g>
<defs>
<clipPath id="clip0_113_3767">
<rect width="40" height="40" fill="white" transform="translate(0.5 0.5)"/>
</clipPath>
</defs>
</svg>
