<svg width="41" height="41" viewBox="0 0 41 41" fill="none" xmlns="http://www.w3.org/2000/svg">
<g clip-path="url(#clip0_113_3691)">
<path d="M39.832 25.8342H1.16798C0.800014 25.8342 0.501343 26.1322 0.501343 26.5009C0.501343 34.2197 6.78094 40.4999 14.5004 40.4999H26.4996C34.2184 40.4999 40.4986 34.2197 40.4986 26.5009C40.4986 26.1322 40.2006 25.8342 39.832 25.8342ZM26.4996 39.1666H14.5004C7.74016 39.1666 2.19986 33.843 1.85189 27.1674H39.148C38.8001 33.843 33.2598 39.1666 26.4996 39.1666Z" fill="#80869A"/>
<path d="M34.5017 9.83934C34.5017 9.79067 34.501 9.742 34.4964 9.66802C34.3937 8.56278 33.6338 7.65482 32.6306 7.31419L33.3852 6.55958C34.6937 5.27771 34.8251 3.22717 33.6798 1.77928C32.4532 0.288737 30.2427 0.0767063 28.7527 1.30264C28.6681 1.37264 28.5861 1.44663 28.5041 1.52866L27.6842 2.36061C27.3402 1.36264 26.4303 0.608033 25.309 0.504049C23.8324 0.423424 22.5825 1.55663 22.5032 3.02451C22.5006 3.07318 22.4999 3.12186 22.4999 3.16983V4.19178C22.1079 3.96443 21.6539 3.83381 21.1693 3.83311C21.1214 3.83311 21.072 3.83443 20.998 3.83842C19.5728 3.97107 18.4762 5.19568 18.5002 6.61552V7.52216C18.1002 7.29083 17.6443 7.16685 17.1696 7.16615C17.1217 7.16615 17.073 7.16747 16.999 7.17146C15.5731 7.30411 14.4765 8.52872 14.5005 9.94864V19.8346C14.5005 20.2033 14.7992 20.5013 15.1671 20.5013H26.4997C27.9702 20.5013 29.1662 19.3053 29.1655 17.8361C29.1655 17.3508 29.0355 16.8955 28.8075 16.5029H29.7081C31.14 16.5422 32.3646 15.4296 32.4986 13.9784C32.5273 13.4357 32.3913 12.9225 32.134 12.4865C32.7326 12.4199 33.2866 12.1552 33.7185 11.7246C34.2223 11.2219 34.501 10.5526 34.5017 9.83934ZM32.7771 10.7806C32.5252 11.0312 32.1912 11.1693 31.8345 11.1693C31.8338 11.1693 31.8332 11.1693 31.8325 11.1693H29.8327C29.464 11.1693 29.166 11.4679 29.166 11.8359C29.166 12.2039 29.464 12.5025 29.8327 12.5025L29.906 12.5046C30.6406 12.5439 31.2059 13.1732 31.1686 13.8811C31.1006 14.6157 30.4774 15.1844 29.7194 15.169H26.4996C26.131 15.169 25.833 15.4677 25.833 15.8357C25.833 16.2036 26.131 16.5023 26.4996 16.5023C27.2349 16.5023 27.8329 17.1003 27.8329 17.8356C27.8329 18.5709 27.2349 19.1689 26.4996 19.1689H15.8336V9.93731C15.821 9.19934 16.3876 8.5681 17.0962 8.50138L17.1689 8.49935C17.9028 8.49997 18.4994 9.09731 18.5001 9.83059V9.83528C18.5001 10.2032 18.7981 10.5019 19.166 10.5019C19.1667 10.5019 19.1667 10.5019 19.1667 10.5019C19.5347 10.5019 19.8327 10.204 19.8334 9.83598V9.83536V6.60419C19.8207 5.86623 20.3874 5.23498 21.096 5.16826L21.168 5.16623C21.9026 5.16756 22.4992 5.76482 22.4999 6.4988V6.50279C22.4999 6.87076 22.7979 7.16943 23.1659 7.16943C23.1666 7.16943 23.1666 7.16943 23.1666 7.16943C23.5346 7.16943 23.8325 6.87146 23.8332 6.50349V6.50279V3.16975L23.8353 3.09576C23.8739 2.36178 24.4885 1.79655 25.2112 1.83319C25.9471 1.90186 26.5131 2.53311 26.4991 3.28373V3.83701C26.4991 4.10701 26.6624 4.35099 26.9131 4.45365C27.1617 4.55631 27.451 4.49763 27.6403 4.30435L29.4488 2.46912C29.4981 2.42045 29.5488 2.37444 29.6015 2.33116C30.5241 1.57256 31.8913 1.70452 32.6433 2.61647C33.3552 3.51771 33.2732 4.80295 32.448 5.61162L30.6948 7.36482C30.5041 7.55544 30.4468 7.84208 30.5501 8.09146C30.6527 8.34013 30.8967 8.50278 31.166 8.50278H31.7193C31.7333 8.50278 31.7433 8.50278 31.7546 8.50278C32.4826 8.50278 33.1012 9.06411 33.1665 9.76536L33.1685 9.83872C33.1677 10.1947 33.0291 10.5293 32.7771 10.7806Z" fill="#80869A"/>
<path d="M29.3619 4.69629L10.6969 23.3613L11.6396 24.304L30.3046 5.639L29.3619 4.69629Z" fill="#80869A"/>
<path d="M26.4983 5.83984H25.165V9.17296H26.4983V5.83984Z" fill="#80869A"/>
<path d="M22.4986 9.17285H21.1653V13.1726H22.4986V9.17285Z" fill="#80869A"/>
<path d="M18.4988 12.499H17.1655V17.1653H18.4988V12.499Z" fill="#80869A"/>
<path d="M29.1647 8.5061H25.8315V9.8393H29.1647V8.5061Z" fill="#80869A"/>
<path d="M25.8317 12.499H21.8319V13.8322H25.8317V12.499Z" fill="#80869A"/>
<path d="M22.4985 16.4988H17.8322V17.8321H22.4985V16.4988Z" fill="#80869A"/>
<path d="M12.9438 3.584C12.9432 3.58267 12.9417 3.58135 12.9411 3.58002C12.0005 2.17143 10.0886 1.78877 8.68074 2.72939C8.63676 2.75807 8.5934 2.78869 8.5441 2.82541L8.3041 3.00807L8.07348 2.84205C6.85356 1.70416 4.93567 1.75018 3.77442 2.95541C3.20583 3.54471 2.90052 4.32064 2.91583 5.13994C2.93114 5.95923 3.2638 6.72314 3.85247 7.29111C4.0238 7.45642 4.21442 7.60173 4.41974 7.72306L4.98106 8.16173V8.50306C4.98106 10.3409 6.47629 11.8362 8.31418 11.8362C10.1521 11.8362 11.6473 10.3402 11.6466 8.50243V8.16111L12.2366 7.70048C13.5131 6.73181 13.8231 4.9233 12.9438 3.584ZM11.4232 6.64447L10.57 7.31111C10.4086 7.43712 10.3139 7.63111 10.3139 7.83642V8.50306C10.3139 9.60563 9.41668 10.5029 8.3141 10.5029C7.21153 10.5029 6.31426 9.60563 6.31426 8.50306V7.83642C6.31426 7.63111 6.22028 7.43712 6.05825 7.31111L5.20497 6.64447C5.17966 6.62447 5.15231 6.6065 5.12434 6.59048C4.99903 6.51915 4.88302 6.43251 4.77903 6.33181C4.44575 6.01048 4.2577 5.57853 4.24903 5.11588C4.24036 4.65322 4.41302 4.21463 4.73434 3.88127C5.07364 3.52931 5.52762 3.35197 5.98223 3.35197C6.41551 3.35197 6.8495 3.5126 7.18551 3.83728C7.20817 3.85861 7.23215 3.87931 7.25817 3.89791L7.92481 4.37791C8.16215 4.54924 8.4841 4.54525 8.71746 4.36791L9.42012 3.83931C9.80676 3.58064 10.27 3.49002 10.7261 3.58002C11.1807 3.67064 11.5733 3.93267 11.8313 4.31799C12.3259 5.07392 12.1499 6.09251 11.4232 6.64447Z" fill="#80869A"/>
<path d="M16.4989 1.16675H15.1656V2.49995H16.4989V1.16675Z" fill="#80869A"/>
<path d="M20.4986 22.4985H19.1654V23.8317H20.4986V22.4985Z" fill="#80869A"/>
<path d="M36.4989 4.50317V5.83645C37.2342 5.83645 37.8322 6.43442 37.8322 7.16965C37.8322 7.90489 37.2342 8.50293 36.4989 8.50293V9.83613C37.9694 9.83613 39.1654 8.6402 39.1654 7.16965C39.1654 5.69911 37.9694 4.50317 36.4989 4.50317Z" fill="#80869A"/>
<path d="M3.16645 10.5061H1.83325V11.8394H3.16645V10.5061Z" fill="#80869A"/>
<path d="M1.83454 7.8396H0.501343V9.17288H1.83454V7.8396Z" fill="#80869A"/>
<path d="M26.4995 21.8345C25.0289 21.8345 23.833 23.0304 23.833 24.5009H25.1663C25.1663 23.7656 25.7643 23.1677 26.4995 23.1677C27.2348 23.1677 27.8328 23.7656 27.8328 24.5009H29.166C29.166 23.0304 27.97 21.8345 26.4995 21.8345Z" fill="#80869A"/>
<path d="M8.5009 15.835H8.41692C8.11957 14.6865 7.07497 13.8352 5.83442 13.8352C4.59388 13.8352 3.54857 14.6865 3.25193 15.835H3.16794C1.6974 15.835 0.501465 17.031 0.501465 18.5015C0.501465 19.9721 1.6974 21.168 3.16794 21.168H8.5009C9.97145 21.168 11.1674 19.9721 11.1674 18.5015C11.1674 17.031 9.97145 15.835 8.5009 15.835ZM8.5009 19.8354H3.16787C2.43255 19.8354 1.83459 19.2375 1.83459 18.5022C1.83459 17.7669 2.43255 17.1689 3.16787 17.1689H3.8345C4.20247 17.1689 4.50114 16.8703 4.50114 16.5023C4.50114 15.767 5.09911 15.1691 5.83442 15.1691C6.56973 15.1691 7.1677 15.7671 7.1677 16.5023C7.1677 16.8703 7.46637 17.1689 7.83434 17.1689H8.50098C9.23629 17.1689 9.83426 17.7669 9.83426 18.5022C9.8341 19.2375 9.23614 19.8354 8.5009 19.8354Z" fill="#80869A"/>
<path d="M7.16759 19.8347H4.50111C4.13314 19.8347 3.83447 20.1334 3.83447 20.5014V23.1678C3.83447 23.5365 4.13314 23.8345 4.50111 23.8345H7.16759C7.53556 23.8345 7.83423 23.5365 7.83423 23.1678V20.5014C7.83423 20.1334 7.53556 19.8347 7.16759 19.8347ZM6.50095 22.5012H5.16775V21.168H6.50103V22.5012H6.50095Z" fill="#80869A"/>
<path d="M35.8322 17.835C34.7297 17.835 33.8324 18.7322 33.8324 19.8348C33.8324 20.9374 34.7297 21.8346 35.8322 21.8346C36.9348 21.8346 37.8321 20.9374 37.8321 19.8348C37.8321 18.7322 36.9348 17.835 35.8322 17.835ZM35.8322 20.5021C35.4643 20.5021 35.1656 20.2028 35.1656 19.8354C35.1656 19.4681 35.4643 19.1688 35.8322 19.1688C36.2002 19.1688 36.4989 19.4675 36.4989 19.8354C36.4989 20.2035 36.2002 20.5021 35.8322 20.5021Z" fill="#80869A"/>
<path d="M35.8322 15.1682C33.2597 15.1682 31.1659 17.2614 31.1659 19.8345C31.1659 22.4077 33.2597 24.5009 35.8322 24.5009C38.4047 24.5009 40.4985 22.4077 40.4985 19.8345C40.4985 17.2614 38.4047 15.1682 35.8322 15.1682ZM35.8322 23.1683C33.9943 23.1683 32.4991 21.6724 32.4991 19.8352C32.4991 17.9973 33.9943 16.502 35.8322 16.502C37.6701 16.502 39.1653 17.9973 39.1653 19.8352C39.1653 21.6731 37.6701 23.1683 35.8322 23.1683Z" fill="#80869A"/>
</g>
<defs>
<clipPath id="clip0_113_3691">
<rect width="40" height="40" fill="white" transform="translate(0.5 0.5)"/>
</clipPath>
</defs>
</svg>
