<svg width="24" height="24" viewBox="0 0 24 24" fill="none" xmlns="http://www.w3.org/2000/svg">
<path fill-rule="evenodd" clip-rule="evenodd" d="M11 3.75C6.99594 3.75 3.75 6.99594 3.75 11C3.75 15.0041 6.99594 18.25 11 18.25C15.0041 18.25 18.25 15.0041 18.25 11C18.25 6.99594 15.0041 3.75 11 3.75ZM2.25 11C2.25 6.16751 6.16751 2.25 11 2.25C15.8325 2.25 19.75 6.16751 19.75 11C19.75 15.8325 15.8325 19.75 11 19.75C6.16751 19.75 2.25 15.8325 2.25 11Z" fill="#80869A"/>
<path fill-rule="evenodd" clip-rule="evenodd" d="M15.9429 15.9428C16.3334 15.5523 16.9666 15.5523 17.3571 15.9428L21.7071 20.2928C22.0977 20.6833 22.0977 21.3165 21.7071 21.707C21.3166 22.0975 20.6834 22.0975 20.2929 21.707L15.9429 17.357C15.5524 16.9665 15.5524 16.3333 15.9429 15.9428Z" fill="#80869A"/>
</svg>
