<svg width="51" height="51" viewBox="0 0 51 51" fill="none" xmlns="http://www.w3.org/2000/svg">
<path d="M46.5938 39.5627H44.9914C44.7942 37.0221 43.6496 34.6483 41.7845 32.9119C39.9195 31.1755 37.4701 30.2031 34.9219 30.1877L35.4688 28.9056C35.5497 28.7148 35.5519 28.4997 35.475 28.3072L34.7672 26.5533L40.1578 13.9135C40.2888 13.6286 40.3612 13.3203 40.3709 13.0069C40.3806 12.6935 40.3273 12.3814 40.2142 12.089C40.101 11.7966 39.9304 11.5298 39.7124 11.3045C39.4943 11.0792 39.2332 10.9 38.9447 10.7774C38.6561 10.6548 38.3459 10.5914 38.0323 10.5908C37.7188 10.5903 37.4083 10.6527 37.1193 10.7742C36.8303 10.8958 36.5687 11.0742 36.3498 11.2987C36.131 11.5232 35.9594 11.7894 35.8453 12.0814L30.4547 24.722L28.7086 25.4213C28.6133 25.4596 28.5266 25.5163 28.4532 25.5881C28.3799 25.66 28.3215 25.7456 28.2813 25.84V25.8447C27.2476 24.4045 25.857 23.2581 24.2461 22.5181C24.6339 22.2295 24.9491 21.8545 25.1668 21.4229C25.3844 20.9912 25.4985 20.5148 25.5 20.0314V17.6877C25.5 17.4805 25.4177 17.2818 25.2712 17.1352C25.1247 16.9887 24.926 16.9064 24.7188 16.9064H22.375C21.9298 16.9078 21.49 17.0049 21.0856 17.1912C20.6812 17.3775 20.3217 17.6486 20.0312 17.9861C19.7408 17.6486 19.3813 17.3775 18.9769 17.1912C18.5725 17.0049 18.1327 16.9078 17.6875 16.9064H15.3438C15.1365 16.9064 14.9378 16.9887 14.7913 17.1352C14.6448 17.2818 14.5625 17.4805 14.5625 17.6877V20.0314C14.5638 20.5154 14.678 20.9923 14.8959 21.4244C15.1138 21.8565 15.4296 22.2318 15.818 22.5205C14.0476 23.3284 12.5464 24.6276 11.4929 26.2638C10.4394 27.8999 9.87786 29.8042 9.875 31.7502C9.875 31.9588 9.88203 32.1533 9.89453 32.3408C8.77936 33.2074 7.85761 34.2974 7.18842 35.5411C6.51923 36.7848 6.11736 38.1546 6.00859 39.5627H4.40625C3.78465 39.5627 3.18851 39.8096 2.74897 40.2491C2.30943 40.6887 2.0625 41.2848 2.0625 41.9064C2.0625 42.528 2.30943 43.1242 2.74897 43.5637C3.18851 44.0032 3.78465 44.2502 4.40625 44.2502H10.7188C10.9074 45.5502 11.5573 46.7391 12.5498 47.5997C13.5424 48.4603 14.8113 48.9352 16.125 48.9377H34.875C36.1887 48.9352 37.4576 48.4603 38.4502 47.5997C39.4427 46.7391 40.0926 45.5502 40.2812 44.2502H46.5938C47.2154 44.2502 47.8115 44.0032 48.251 43.5637C48.6906 43.1242 48.9375 42.528 48.9375 41.9064C48.9375 41.2848 48.6906 40.6887 48.251 40.2491C47.8115 39.8096 47.2154 39.5627 46.5938 39.5627ZM43.4289 39.5627H41.8602C41.6629 37.8484 40.8421 36.2665 39.554 35.1181C38.266 33.9698 36.6006 33.3352 34.875 33.3352C33.1494 33.3352 31.484 33.9698 30.196 35.1181C28.9079 36.2665 28.0871 37.8484 27.8898 39.5627H26.3211C26.5128 37.4262 27.497 35.4388 29.0802 33.9914C30.6633 32.5439 32.7307 31.7413 34.8758 31.7413C37.0208 31.7413 39.0883 32.5439 40.6714 33.9914C42.2545 35.4388 43.2387 37.4262 43.4305 39.5627H43.4289ZM38.7031 39.5627C38.5238 38.6796 38.0447 37.8857 37.3471 37.3155C36.6494 36.7453 35.7761 36.4338 34.875 36.4338C33.9739 36.4338 33.1006 36.7453 32.4029 37.3155C31.7053 37.8857 31.2262 38.6796 31.0469 39.5627H29.4688C29.6555 38.262 30.305 37.0723 31.298 36.2117C32.291 35.3511 33.561 34.8774 34.875 34.8774C36.189 34.8774 37.459 35.3511 38.452 36.2117C39.445 37.0723 40.0945 38.262 40.2812 39.5627H38.7031ZM37.0758 39.5627H32.675C32.8341 39.106 33.1314 38.7101 33.5256 38.43C33.9198 38.1499 34.3914 37.9994 34.875 37.9994C35.3586 37.9994 35.8302 38.1499 36.2244 38.43C36.6186 38.7101 36.9159 39.106 37.075 39.5627H37.0758ZM29.5914 26.7502L31.3375 26.047C31.4328 26.0089 31.5197 25.9524 31.5932 25.8807C31.6666 25.809 31.7252 25.7235 31.7656 25.6291L37.2828 12.6877C37.3643 12.4977 37.5178 12.3478 37.7096 12.2708C37.9015 12.1938 38.116 12.1959 38.3062 12.2767C38.4002 12.3161 38.4853 12.3738 38.5568 12.4463C38.6283 12.5189 38.6847 12.6049 38.7227 12.6994C38.8019 12.8907 38.8019 13.1057 38.7227 13.297L33.2031 26.24C33.1628 26.3346 33.1416 26.4363 33.1407 26.5391C33.1397 26.6419 33.1591 26.7439 33.1977 26.8392L33.9047 28.5931L33.1562 30.3439C32.1125 30.5205 31.1032 30.8609 30.1656 31.3525C30.1164 30.0318 29.8077 28.7337 29.257 27.5322L29.5914 26.7502ZM22.375 18.4689H23.9375V20.0314C23.9375 20.4458 23.7729 20.8432 23.4799 21.1363C23.1868 21.4293 22.7894 21.5939 22.375 21.5939H20.8125V20.0314C20.8125 19.617 20.9771 19.2196 21.2701 18.9266C21.5632 18.6335 21.9606 18.4689 22.375 18.4689ZM16.125 18.4689H17.6875C18.1019 18.4689 18.4993 18.6335 18.7924 18.9266C19.0854 19.2196 19.25 19.617 19.25 20.0314V21.5939H17.6875C17.2731 21.5939 16.8757 21.4293 16.5826 21.1363C16.2896 20.8432 16.125 20.4458 16.125 20.0314V18.4689ZM20.0312 23.1564C22.3096 23.1591 24.4939 24.0654 26.105 25.6764C27.716 27.2875 28.6223 29.4718 28.625 31.7502C28.625 31.9736 28.6148 32.1775 28.6008 32.3752C27.2383 33.446 26.1712 34.8463 25.5 36.4439C24.8587 34.9099 23.8518 33.5561 22.5671 32.5006C21.2824 31.4451 19.759 30.72 18.1297 30.3885C18.4177 29.9843 18.8268 29.6822 19.2978 29.5258C19.7687 29.3694 20.2773 29.3668 20.7498 29.5184C21.2224 29.67 21.6345 29.9679 21.9266 30.369C22.2188 30.7702 22.3758 31.2539 22.375 31.7502H23.9375C23.9364 30.8521 23.6258 29.9818 23.0582 29.2859C22.4905 28.59 21.7003 28.1109 20.8208 27.9294C19.9412 27.7479 19.026 27.875 18.2292 28.2893C17.4324 28.7036 16.8027 29.3798 16.4461 30.2041C16.3383 30.2002 16.2336 30.1877 16.125 30.1877C15.6698 30.1912 15.2154 30.2254 14.7648 30.29C15.1207 29.0185 15.9245 27.9186 17.028 27.1935C18.1314 26.4684 19.46 26.167 20.7683 26.3449C22.0767 26.5229 23.2764 27.1682 24.1461 28.1617C25.0158 29.1552 25.4967 30.4298 25.5 31.7502C25.5004 31.98 25.4866 32.2096 25.4586 32.4377L27.0109 32.6252C27.0459 32.3348 27.0631 32.0426 27.0625 31.7502C27.0636 29.9813 26.3976 28.2772 25.1973 26.9779C23.9971 25.6786 22.351 24.8798 20.5876 24.7409C18.8242 24.602 17.0734 25.1333 15.6845 26.2287C14.2957 27.3241 13.3711 28.903 13.0953 30.6502C12.5294 30.8291 11.9804 31.0575 11.4547 31.333C11.5618 29.1298 12.5119 27.0522 14.1084 25.5302C15.7049 24.0081 17.8255 23.1582 20.0312 23.1564ZM16.125 31.7502C18.2677 31.753 20.3322 32.5555 21.9144 34.0005C23.4965 35.4455 24.4823 37.429 24.6789 39.5627H23.1102C22.9129 37.8484 22.0921 36.2665 20.804 35.1181C19.516 33.9698 17.8506 33.3352 16.125 33.3352C14.3994 33.3352 12.734 33.9698 11.446 35.1181C10.1579 36.2665 9.33711 37.8484 9.13984 39.5627H7.57109C7.76765 37.429 8.7535 35.4455 10.3356 34.0005C11.9178 32.5555 13.9823 31.753 16.125 31.7502ZM19.9531 39.5627C19.7738 38.6796 19.2947 37.8857 18.5971 37.3155C17.8994 36.7453 17.0261 36.4338 16.125 36.4338C15.2239 36.4338 14.3506 36.7453 13.6529 37.3155C12.9553 37.8857 12.4762 38.6796 12.2969 39.5627H10.7188C10.9055 38.262 11.555 37.0723 12.548 36.2117C13.541 35.3511 14.811 34.8774 16.125 34.8774C17.439 34.8774 18.709 35.3511 19.702 36.2117C20.695 37.0723 21.3445 38.262 21.5312 39.5627H19.9531ZM18.3258 39.5627H13.925C14.0841 39.106 14.3814 38.7101 14.7756 38.43C15.1698 38.1499 15.6414 37.9994 16.125 37.9994C16.6086 37.9994 17.0802 38.1499 17.4744 38.43C17.8686 38.7101 18.1659 39.106 18.325 39.5627H18.3258ZM34.875 47.3752H16.125C15.2248 47.3742 14.3525 47.0628 13.6551 46.4935C12.9578 45.9243 12.4781 45.1319 12.2969 44.2502H38.7031C38.5219 45.1319 38.0422 45.9243 37.3449 46.4935C36.6475 47.0628 35.7752 47.3742 34.875 47.3752ZM46.5938 42.6877H4.40625C4.19905 42.6877 4.00034 42.6054 3.85382 42.4588C3.70731 42.3123 3.625 42.1136 3.625 41.9064C3.625 41.6992 3.70731 41.5005 3.85382 41.354C4.00034 41.2075 4.19905 41.1252 4.40625 41.1252H46.5938C46.8009 41.1252 46.9997 41.2075 47.1462 41.354C47.2927 41.5005 47.375 41.6992 47.375 41.9064C47.375 42.1136 47.2927 42.3123 47.1462 42.4588C46.9997 42.6054 46.8009 42.6877 46.5938 42.6877Z" fill="#80869A"/>
<path d="M41.8438 17.9265L40.4063 17.3132L37.4532 24.2359C37.1356 24.9752 36.9678 25.7702 36.9597 26.5749C36.9515 27.3795 37.103 28.1777 37.4055 28.9234L38.8555 28.339C38.4059 27.2154 38.4185 25.9596 38.8907 24.8453L41.8438 17.9265Z" fill="#80869A"/>
<path d="M41.0263 15.8008L41.5776 14.507L43.015 15.1195L42.4638 16.4133L41.0263 15.8008Z" fill="#80869A"/>
</svg>
