<?xml version="1.0" encoding="UTF-8" standalone="no"?>
<svg
   width="13.833364"
   height="11.4999"
   viewBox="0 0 13.833364 11.4999"
   fill="none"
   version="1.1"
   id="svg10"
   xmlns="http://www.w3.org/2000/svg"
   xmlns:svg="http://www.w3.org/2000/svg">
  <defs
     id="defs14" />
  <path
     id="path2"
     style="color:#000000;fill:#80869a;stroke-linecap:round;stroke-linejoin:round;-inkscape-stroke:none"
     d="M 0.5,0 A 0.50005,0.50005 0 0 0 0,0.5 v 7.5839844 a 0.50005,0.50005 0 0 0 0.5,0.5 H 1.4199219 C 1.2589683,8.8676782 1.1660156,9.193672 1.1660156,9.5410156 1.1660156,10.616641 2.0493767,11.5 3.125,11.5 c 1.0756299,0 1.9589844,-0.883359 1.9589844,-1.9589844 0,-0.3473436 -0.092953,-0.6733374 -0.2539063,-0.9570312 H 9.0039062 C 8.8429557,8.8676782 8.75,9.1936733 8.75,9.5410156 8.75,10.616636 9.6333353,11.5 10.708984,11.5 c 1.075617,0 1.957032,-0.883368 1.957032,-1.9589844 0,-0.3472237 -0.09138,-0.6734039 -0.251954,-0.9570312 h 0.919922 a 0.50005,0.50005 0 0 0 0.5,-0.5 V 5.1660156 A 0.50005,0.50005 0 0 0 13.6875,4.8125 l -1.75,-1.75 A 0.50005,0.50005 0 0 0 11.583984,2.9160156 H 9.75 V 0.5 A 0.50005,0.50005 0 0 0 9.25,0 Z M 1,1 H 8.75 V 3.4160156 7.5839844 H 3.125 1 Z m 8.75,2.9160156 h 1.626953 l 1.457031,1.4570313 V 7.5839844 H 9.75 Z M 3.125,8.5839844 c 0.5352002,0 0.9589844,0.4218177 0.9589844,0.9570312 C 4.0839844,10.076189 3.6602085,10.5 3.125,10.5 2.5898049,10.5 2.1660156,10.076189 2.1660156,9.5410156 2.1660156,9.0058021 2.5898132,8.5839844 3.125,8.5839844 Z m 7.583984,0 c 0.535174,0 0.957032,0.4218094 0.957032,0.9570312 C 11.666016,10.076197 11.244166,10.5 10.708984,10.5 10.173736,10.5 9.75,10.076193 9.75,9.5410156 c 0,-0.5352177 0.423744,-0.9570312 0.958984,-0.9570312 z" />
</svg>
